<?xml version="1.0" encoding="utf-8"?>
<!-- Generator: Adobe Illustrator 14.0.0, SVG Export Plug-In . SVG Version: 6.00 Build 43363)  -->
<!DOCTYPE svg PUBLIC "-//W3C//DTD SVG 1.1//EN" "http://www.w3.org/Graphics/SVG/1.1/DTD/svg11.dtd">
<svg version="1.1" id="Layer_1" xmlns="http://www.w3.org/2000/svg" xmlns:xlink="http://www.w3.org/1999/xlink" x="0px" y="0px"
	 width="59.529px" height="59.529px" viewBox="0 0 59.529 59.529" enable-background="new 0 0 59.529 59.529" xml:space="preserve">
<g id="Aurinko">
	<g>
		
			<radialGradient id="SVGID_1_" cx="22.6235" cy="37.4001" r="21.7652" gradientTransform="matrix(1 0 0 -1 0.04 59.4839)" gradientUnits="userSpaceOnUse">
			<stop  offset="0.3333" style="stop-color:#FFC708"/>
			<stop  offset="0.4941" style="stop-color:#FEC409"/>
			<stop  offset="0.6066" style="stop-color:#FCBB0A"/>
			<stop  offset="0.7044" style="stop-color:#F9AC0D"/>
			<stop  offset="0.7937" style="stop-color:#F49612"/>
			<stop  offset="0.8774" style="stop-color:#ED7918"/>
			<stop  offset="0.9557" style="stop-color:#E5571E"/>
			<stop  offset="1" style="stop-color:#E04023"/>
		</radialGradient>
		<path fill="url(#SVGID_1_)" d="M37.793,24.655c0.354,1.699,2.144,1.203,3.019,2.082c0.598,0.6,0.768,1.613,1.373,2.098
			c0.893,0.715,1.078,0.043,2.457,1.598c-1.674-0.432-2.199,0.369-3.433,0.355c-0.901-0.01-1.913-1.012-2.858-1.155
			c-0.947-0.143-1.4,0.635-2.724,0.552l2.171,6.097l-6.377-1.75c-0.679,0.994,0.594,2.033,0.635,3.023
			c0.037,0.875-0.42,1.572-0.367,2.398c0.082,1.344,1.029,1.213,0.277,3.377c-0.625-2.086-1.634-1.246-2.437-2.125
			c-0.94-1.027-0.354-2.012-0.797-2.602c-0.74-0.984-1.771-0.504-2.554-1.799l-2.942,6.27l-3.125-6.16
			c-1.683,0.486-0.854,1.271-1.521,2.215c-0.734,1.041-1.937,1.064-2.537,1.625c-0.879,0.822-0.072,1.924-1.711,2.879
			c0.07-1.939-0.576-2.055-0.502-3.193c0.057-0.885,0.781-1.818,0.764-2.566c-0.027-1.328-0.424-2.027-0.199-3.293l-6.729,2.508
			l2.547-6.648c-1.631-0.929-2.658,0.701-3.867,0.762c-0.826,0.041-1.283-0.518-2.064-0.424c-1.449,0.176-1.82,1.213-3.607,0.186
			c1.84-0.451,1.676-1.822,2.715-2.745c0.666-0.59,1.77-0.243,2.506-0.674c0.834-0.485-0.178-1.498,2.045-2.332l-6.578-3.108
			l6.471-2.849c-0.801-1.893-1.922-0.922-2.676-1.732c-0.625-0.672-1.082-1.834-1.684-2.378c-1.031-0.933-2.139,0.032-2.381-2.349
			c1.475,1.4,2.197,0.225,3.697,0.188c1.219-0.029,1.49,0.954,2.359,1.153c0.867,0.199,2.088-0.445,2.744-0.224L7.354,7.44
			l6.637,2.13c0.68-1.515-0.688-1.963-0.697-2.86c-0.012-1.026,0.732-1.445,0.627-2.202c-0.191-1.347-1.336-1.392-0.615-3.646
			c0.482,1.913,1.889,1.609,2.818,2.43c0.68,0.599,0.469,1.789,1.045,2.427c0.576,0.64,1.637,0.111,2.581,1.341l3.095-5.925l3.258,6
			c1.803-0.141,0.936-1.926,1.756-2.873c0.428-0.496,1.525-0.875,1.912-1.382c0.725-0.944,0.387-1.933,2.01-2.344
			c-0.432,1.514,0.354,2.296,0.277,3.231c-0.064,0.835-1.002,1.717-1.144,2.456c-0.205,1.081,0.57,0.95,0.377,3.174l5.918-2.084
			l-1.7,6.316c1.346,0.296,2.108-0.929,3-0.994c0.891-0.064,1.354,0.599,2.17,0.42c1.434-0.313,1.709-1.203,3.545-0.537
			c-1.994,0.933-1.106,1.729-1.793,2.369c-0.568,0.527-1.98,0.388-2.603,0.853c-1.035,0.773-0.438,1.886-2.181,2.843l5.669,2.894
			L37.793,24.655L37.793,24.655z"/>
		<circle fill="#FDEC3D" cx="22.345" cy="22.103" r="12.949"/>
	</g>
</g>
<g id="Kuu" display="none">
	<g display="inline">
		<g>
			
				<circle fill="#47ABD2" stroke="#B4D8E3" stroke-width="0.4116" stroke-miterlimit="10" stroke-dasharray="1.6466,0.4116" cx="-518.333" cy="198.293" r="16.852"/>
			<g>
				
					<circle fill="#278FCD" stroke="#54B1E4" stroke-width="0.6998" stroke-miterlimit="10" stroke-dasharray="1.6466,0.4116" cx="-518.334" cy="198.293" r="15.566"/>
				<g>
					
						<radialGradient id="SVGID_2_" cx="-640.8569" cy="1091.6638" r="9.7605" gradientTransform="matrix(1 0 0 1 117.7251 -902.8418)" gradientUnits="userSpaceOnUse">
						<stop  offset="0.4606" style="stop-color:#FFF5BC"/>
						<stop  offset="0.5457" style="stop-color:#FFF3A4"/>
						<stop  offset="0.7252" style="stop-color:#FFED67"/>
						<stop  offset="0.9828" style="stop-color:#FFE407"/>
						<stop  offset="1" style="stop-color:#FFE300"/>
					</radialGradient>
					<path fill="url(#SVGID_2_)" stroke="#FFFFFF" stroke-width="0.6175" stroke-linejoin="bevel" stroke-miterlimit="10" d="
						M-515.662,189.385c4.176,0,7.911,1.864,10.428,4.808c-1.743-5.575-6.949-9.622-13.099-9.622
						c-7.579,0-13.722,6.143-13.722,13.722c0,3.404,1.242,6.518,3.295,8.915c-0.406-1.295-0.624-2.672-0.624-4.101
						C-529.384,195.529-523.241,189.385-515.662,189.385z"/>
				</g>
				
					<linearGradient id="SVGID_3_" gradientUnits="userSpaceOnUse" x1="-642.5527" y1="1095.7097" x2="-626.89" y2="1111.3724" gradientTransform="matrix(1 0 0 1 117.7251 -902.8418)">
					<stop  offset="0" style="stop-color:#E8DE20"/>
					<stop  offset="0.1897" style="stop-color:#E6D11E"/>
					<stop  offset="0.7061" style="stop-color:#E2B419"/>
					<stop  offset="1" style="stop-color:#E0A917"/>
				</linearGradient>
				<path fill="url(#SVGID_3_)" stroke="#F0E764" stroke-width="0.4116" stroke-miterlimit="10" d="M-518.333,212.014
					c7.579,0,13.722-6.145,13.722-13.723c0-1.428-0.219-2.805-0.623-4.1c-2.518-2.942-6.252-4.808-10.428-4.808
					c-7.578,0-13.721,6.144-13.721,13.721c0,1.429,0.218,2.805,0.624,4.101C-526.244,210.149-522.508,212.014-518.333,212.014z"/>
				<path fill="#DEB518" d="M-515.073,202.588c-0.021,0.477,0.32,0.829,0.813,0.754c0.005-0.054,0.014-0.112,0.014-0.167
					c0.4-0.021,0.714,0.381,1.033-0.005c0.214-0.257-0.112-0.354,0.368-0.4c0.438-0.041,0.485,0.271,0.625-0.188
					c0.061-0.197-0.079-0.449,0.056-0.623c0.135-0.174,0.365-0.089,0.486-0.234c0.26-0.315-0.027-0.855-0.397-0.896
					c-0.098,0.241-0.266,0.399-0.366,0.612c-0.253-0.647-0.669,0.116-0.646,0.462c-0.058-0.031-0.206-0.139-0.254-0.188
					c-0.023-0.417,0.032-0.559-0.245-0.806c-0.191-0.171-0.483-0.328-0.749-0.265c-0.124,0.179-0.1,0.392-0.104,0.62
					c-0.625,0.034-0.73,0.18-0.49,0.762c0-0.039,0.007-0.085,0-0.123"/>
				<path fill="#DEB518" d="M-525.106,202.489c-0.536,0.197-0.773,0.737-0.463,1.25c0.062-0.02,0.134-0.038,0.19-0.061
					c0.211,0.433-0.092,0.964,0.48,1.143c0.383,0.12,0.341-0.289,0.613,0.224c0.247,0.467-0.076,0.662,0.495,0.607
					c0.247-0.022,0.462-0.293,0.717-0.224c0.255,0.067,0.268,0.362,0.485,0.431c0.468,0.143,0.936-0.423,0.813-0.854
					c-0.313,0.003-0.565-0.109-0.848-0.125c0.602-0.576-0.436-0.688-0.809-0.503c0.008-0.079,0.06-0.292,0.089-0.366
					c0.451-0.219,0.634-0.222,0.781-0.642c0.102-0.291,0.141-0.688-0.05-0.953c-0.256-0.055-0.48,0.07-0.736,0.168
					c-0.325-0.677-0.533-0.729-1.068-0.192c0.042-0.019,0.097-0.03,0.135-0.058"/>
				<path fill="#E4C312" d="M-525.479,198.658c-0.021,0.475,0.319,0.83,0.813,0.754c0.005-0.054,0.015-0.114,0.015-0.167
					c0.399-0.022,0.713,0.379,1.032-0.005c0.215-0.257-0.112-0.354,0.368-0.402c0.438-0.041,0.485,0.271,0.625-0.187
					c0.061-0.197-0.079-0.449,0.057-0.623c0.134-0.174,0.364-0.089,0.485-0.236c0.261-0.313-0.026-0.854-0.397-0.896
					c-0.098,0.241-0.267,0.398-0.366,0.61c-0.254-0.646-0.669,0.116-0.646,0.464c-0.058-0.031-0.205-0.141-0.253-0.188
					c-0.023-0.417,0.032-0.559-0.244-0.806c-0.192-0.171-0.485-0.328-0.749-0.268c-0.124,0.181-0.101,0.394-0.106,0.62
					c-0.625,0.035-0.729,0.181-0.49,0.762c0-0.038,0.008-0.085,0-0.121"/>
				<path fill="#DEB518" d="M-515.389,206.601c0.459-0.483,0.425-1.173-0.167-1.549c-0.053,0.052-0.118,0.105-0.167,0.162
					c-0.446-0.345-0.406-1.059-1.1-0.945c-0.464,0.074-0.205,0.478-0.759,0.085c-0.501-0.361-0.265-0.735-0.837-0.379
					c-0.244,0.149-0.33,0.547-0.633,0.605c-0.302,0.063-0.469-0.243-0.731-0.2c-0.564,0.096-0.762,0.933-0.404,1.317
					c0.325-0.166,0.648-0.177,0.952-0.31c-0.329,0.92,0.814,0.491,1.108,0.104c0.034,0.087,0.092,0.338,0.099,0.433
					c-0.358,0.463-0.548,0.563-0.483,1.077c0.044,0.359,0.208,0.795,0.548,0.974c0.296-0.075,0.466-0.322,0.684-0.56
					c0.692,0.54,0.937,0.484,1.222-0.352c-0.035,0.04-0.087,0.083-0.113,0.127"/>
				<path fill="#E1BD15" d="M-516.161,191.029c-0.626-0.229-1.244,0.077-1.354,0.77c0.069,0.028,0.146,0.065,0.218,0.09
					c-0.139,0.546-0.81,0.793-0.432,1.386c0.252,0.395,0.52-0.002,0.38,0.661c-0.131,0.604-0.569,0.535-0.015,0.918
					c0.235,0.164,0.633,0.084,0.809,0.339c0.177,0.253-0.036,0.527,0.108,0.751c0.312,0.479,1.157,0.327,1.368-0.154
					c-0.28-0.23-0.42-0.522-0.663-0.75c0.976-0.063,0.128-0.942-0.344-1.06c0.066-0.065,0.274-0.218,0.356-0.262
					c0.566,0.146,0.734,0.278,1.182,0.015c0.313-0.186,0.646-0.507,0.672-0.89c-0.186-0.241-0.479-0.3-0.783-0.403
					c0.22-0.853,0.072-1.053-0.81-0.98c0.051,0.019,0.111,0.047,0.163,0.055"/>
				<path fill="#E0BC16" d="M-521.246,201.999c-0.024,0.608,0.41,1.063,1.043,0.966c0.006-0.069,0.931,0.271,1.341-0.222
					c0.273-0.328-0.146-0.453,0.471-0.513c0.561-0.056,0.622,0.346,0.802-0.242c0.078-0.249-0.102-0.574,0.07-0.796
					s0.469-0.113,0.623-0.302c0.333-0.402,0.424-2.847-0.59-2.399c-0.201-0.385-1.5,0.439-1.854,0.124
					c-0.246-0.22-0.916,0.436-0.959,0.896c-0.159,0.229-0.623,0.033-0.63,0.326C-521.731,199.883-521.827,201.81-521.246,201.999z"
					/>
				<path fill="#DDB918" d="M-508.3,198.135c0.359,0.656,1.549,0.637,1.209-0.259c0.766-0.563,0.889-1.541,0.15-2.217
					c-0.088,0.062-0.193,0.123-0.277,0.188c-0.539-0.595-0.306-1.588-1.307-1.604c-0.669-0.012-0.409,0.622-1.087-0.07
					c-0.615-0.631-0.189-1.098-1.08-0.739c-0.381,0.151-0.602,0.688-1.042,0.695c-0.44,0.009-0.599-0.459-0.98-0.463
					c-0.815-0.008-1.299,1.117-0.896,1.749c0.498-0.148,0.957-0.088,1.414-0.196c-0.69,1.209,1.022,0.895,1.53,0.425
					c0.027,0.129,0.045,0.497,0.03,0.628c-0.619,0.563-0.91,0.655-0.947,1.394c-0.024,0.52,0.096,1.169,0.528,1.503
					c0.435-0.03,0.734-0.337,1.099-0.614c0.842,0.931,1.196,0.914,1.806-0.192c-0.062,0.048-0.146,0.095-0.191,0.153"/>
				<path fill="#DDB918" d="M-517.342,198.083c0.358,0.659,1.548,0.639,1.208-0.257c0.765-0.563,0.889-1.541,0.151-2.217
					c-0.089,0.06-0.194,0.123-0.278,0.188c-0.539-0.593-0.306-1.587-1.307-1.603c-0.67-0.012-0.41,0.622-1.088-0.07
					c-0.615-0.63-0.189-1.097-1.08-0.741c-0.382,0.153-0.602,0.688-1.042,0.697c-0.44,0.008-0.599-0.459-0.979-0.463
					c-0.815-0.008-1.299,1.117-0.896,1.749c0.499-0.15,0.957-0.088,1.414-0.198c-0.69,1.209,1.021,0.896,1.53,0.428
					c0.027,0.129,0.045,0.495,0.03,0.628c-0.619,0.562-0.91,0.653-0.946,1.394c-0.025,0.519,0.096,1.169,0.527,1.503
					c0.435-0.032,0.735-0.337,1.099-0.616c0.841,0.933,1.196,0.914,1.805-0.19c-0.061,0.048-0.145,0.094-0.19,0.151"/>
			</g>
			<path fill="#E3C803" d="M-528.916,206.87c-0.339,0-0.812-1.258-0.849-1.596c-0.058-0.525-0.086-1.055-0.086-1.583
				c0-7.96,6.476-14.438,14.436-14.438c3.411,0,6.652,1.184,9.243,3.352c0.296,0.248,1.147,1.51,0.871,1.792
				c-0.276,0.283-0.729,0.287-1.011,0.01c-2.446-2.399-5.68-3.721-9.104-3.721c-7.171,0-13.006,5.835-13.006,13.007
				c0,0.782,0.071,1.568,0.21,2.336c0.07,0.389-0.188,0.761-0.576,0.832C-528.831,206.865-528.874,206.87-528.916,206.87
				L-528.916,206.87z"/>
		</g>
		
			<circle fill="none" stroke="#C0DEE8" stroke-width="0.4281" stroke-miterlimit="10" stroke-dasharray="1.6136,0.8233" cx="-518.334" cy="198.293" r="17.525"/>
		
			<circle fill="none" stroke="#CEE5ED" stroke-width="0.8233" stroke-miterlimit="10" stroke-dasharray="2.4205,0.8068" cx="-518.334" cy="198.293" r="18.598"/>
	</g>
</g>
<g id="Kuu_kesk" display="none">
	<g display="inline">
		<g>
			
				<circle fill="#47ABD2" stroke="#B4D8E3" stroke-width="0.4116" stroke-miterlimit="10" stroke-dasharray="1.6466,0.4116" cx="-515.192" cy="205.208" r="16.852"/>
			<g>
				
					<circle fill="#278FCD" stroke="#54B1E4" stroke-width="0.6998" stroke-miterlimit="10" stroke-dasharray="1.6466,0.4116" cx="-515.194" cy="205.208" r="15.566"/>
				<g>
					
						<radialGradient id="SVGID_4_" cx="-637.7163" cy="1098.5798" r="9.7605" gradientTransform="matrix(1 0 0 1 117.7251 -902.8418)" gradientUnits="userSpaceOnUse">
						<stop  offset="0.4606" style="stop-color:#FFF5BC"/>
						<stop  offset="0.5457" style="stop-color:#FFF3A4"/>
						<stop  offset="0.7252" style="stop-color:#FFED67"/>
						<stop  offset="0.9828" style="stop-color:#FFE407"/>
						<stop  offset="1" style="stop-color:#FFE300"/>
					</radialGradient>
					<path fill="url(#SVGID_4_)" stroke="#FFFFFF" stroke-width="0.6175" stroke-linejoin="bevel" stroke-miterlimit="10" d="
						M-512.522,196.302c4.175,0,7.91,1.865,10.428,4.809c-1.744-5.575-6.949-9.622-13.099-9.622
						c-7.579,0-13.723,6.143-13.723,13.722c0,3.404,1.242,6.517,3.295,8.915c-0.405-1.296-0.624-2.672-0.624-4.101
						C-526.243,202.444-520.101,196.302-512.522,196.302z"/>
				</g>
				
					<linearGradient id="SVGID_5_" gradientUnits="userSpaceOnUse" x1="-639.4141" y1="1102.6248" x2="-623.7507" y2="1118.2881" gradientTransform="matrix(1 0 0 1 117.7251 -902.8418)">
					<stop  offset="0" style="stop-color:#E8DE20"/>
					<stop  offset="0.1897" style="stop-color:#E6D11E"/>
					<stop  offset="0.7061" style="stop-color:#E2B419"/>
					<stop  offset="1" style="stop-color:#E0A917"/>
				</linearGradient>
				<path fill="url(#SVGID_5_)" stroke="#F0E764" stroke-width="0.4116" stroke-miterlimit="10" d="M-515.193,218.929
					c7.579,0,13.722-6.146,13.722-13.723c0-1.428-0.219-2.805-0.623-4.1c-2.518-2.942-6.253-4.81-10.428-4.81
					c-7.579,0-13.722,6.146-13.722,13.723c0,1.429,0.219,2.805,0.624,4.101C-523.104,217.064-519.367,218.929-515.193,218.929z"/>
				<path fill="#DEB518" d="M-511.934,209.503c-0.021,0.477,0.321,0.829,0.813,0.754c0.007-0.054,0.015-0.112,0.015-0.167
					c0.399-0.021,0.714,0.382,1.033-0.005c0.214-0.257-0.113-0.354,0.367-0.399c0.438-0.041,0.485,0.271,0.626-0.188
					c0.062-0.195-0.079-0.449,0.057-0.623c0.134-0.174,0.364-0.089,0.484-0.234c0.262-0.314-0.026-0.855-0.397-0.896
					c-0.098,0.241-0.266,0.399-0.365,0.612c-0.254-0.647-0.67,0.115-0.646,0.462c-0.059-0.031-0.205-0.14-0.255-0.188
					c-0.022-0.416,0.032-0.559-0.243-0.805c-0.192-0.172-0.484-0.328-0.749-0.266c-0.124,0.179-0.101,0.393-0.105,0.619
					c-0.625,0.034-0.729,0.18-0.489,0.762c0-0.038,0.008-0.084,0-0.122"/>
				<path fill="#DEB518" d="M-521.966,209.405c-0.536,0.196-0.772,0.736-0.463,1.249c0.062-0.021,0.134-0.038,0.191-0.063
					c0.211,0.436-0.093,0.967,0.479,1.145c0.383,0.12,0.341-0.288,0.614,0.225c0.247,0.465-0.077,0.661,0.495,0.606
					c0.247-0.022,0.462-0.294,0.717-0.226c0.254,0.068,0.267,0.364,0.484,0.434c0.469,0.143,0.936-0.424,0.812-0.854
					c-0.313,0.003-0.565-0.108-0.847-0.125c0.601-0.575-0.437-0.688-0.81-0.503c0.008-0.079,0.061-0.293,0.089-0.367
					c0.451-0.218,0.634-0.221,0.781-0.641c0.102-0.291,0.141-0.688-0.049-0.953c-0.256-0.055-0.481,0.07-0.737,0.168
					c-0.325-0.676-0.533-0.729-1.067-0.191c0.042-0.02,0.097-0.031,0.135-0.059"/>
				<path fill="#E4C312" d="M-522.339,205.573c-0.02,0.476,0.32,0.829,0.814,0.755c0.005-0.055,0.014-0.115,0.014-0.167
					c0.4-0.022,0.713,0.379,1.033-0.005c0.214-0.257-0.113-0.354,0.368-0.402c0.437-0.041,0.484,0.271,0.625-0.187
					c0.06-0.197-0.079-0.449,0.056-0.623c0.134-0.174,0.365-0.089,0.486-0.236c0.26-0.313-0.027-0.854-0.398-0.896
					c-0.097,0.241-0.266,0.398-0.366,0.61c-0.254-0.646-0.669,0.116-0.646,0.464c-0.059-0.031-0.206-0.141-0.253-0.188
					c-0.024-0.417,0.032-0.559-0.245-0.806c-0.192-0.171-0.485-0.328-0.749-0.268c-0.124,0.181-0.1,0.394-0.106,0.62
					c-0.625,0.035-0.729,0.181-0.489,0.761c0-0.037,0.008-0.084,0-0.12"/>
				<path fill="#DEB518" d="M-512.249,213.516c0.459-0.482,0.425-1.172-0.168-1.551c-0.053,0.055-0.117,0.107-0.166,0.164
					c-0.445-0.344-0.406-1.059-1.1-0.945c-0.463,0.072-0.205,0.479-0.758,0.086c-0.502-0.361-0.267-0.735-0.837-0.38
					c-0.244,0.149-0.33,0.547-0.634,0.604c-0.302,0.063-0.469-0.242-0.731-0.199c-0.564,0.096-0.761,0.934-0.404,1.316
					c0.325-0.165,0.649-0.177,0.952-0.309c-0.329,0.92,0.815,0.49,1.109,0.104c0.033,0.088,0.091,0.339,0.098,0.432
					c-0.357,0.465-0.548,0.563-0.483,1.078c0.045,0.359,0.208,0.795,0.548,0.974c0.297-0.075,0.465-0.321,0.684-0.56
					c0.693,0.539,0.938,0.484,1.221-0.353c-0.034,0.04-0.087,0.083-0.112,0.128"/>
				<path fill="#E1BD15" d="M-513.021,197.944c-0.626-0.229-1.245,0.077-1.354,0.77c0.069,0.028,0.146,0.065,0.219,0.09
					c-0.141,0.546-0.811,0.793-0.433,1.386c0.253,0.395,0.521-0.002,0.38,0.661c-0.131,0.604-0.567,0.534-0.016,0.918
					c0.236,0.164,0.634,0.084,0.81,0.339c0.178,0.253-0.036,0.525,0.108,0.751c0.312,0.479,1.158,0.327,1.369-0.154
					c-0.281-0.23-0.42-0.522-0.662-0.75c0.975-0.063,0.127-0.943-0.344-1.06c0.064-0.065,0.272-0.219,0.354-0.263
					c0.567,0.146,0.734,0.279,1.182,0.016c0.313-0.186,0.646-0.507,0.673-0.891c-0.187-0.24-0.479-0.299-0.783-0.402
					c0.219-0.853,0.072-1.054-0.81-0.98c0.052,0.019,0.11,0.047,0.162,0.054"/>
				<path fill="#E0BC16" d="M-518.106,208.914c-0.025,0.607,0.41,1.063,1.043,0.966c0.005-0.069,0.93,0.271,1.34-0.222
					c0.274-0.328-0.146-0.453,0.47-0.514c0.562-0.055,0.623,0.347,0.803-0.241c0.077-0.249-0.103-0.573,0.07-0.796
					c0.172-0.225,0.469-0.113,0.623-0.303c0.332-0.402,0.424-2.846-0.59-2.399c-0.201-0.385-1.5,0.439-1.854,0.124
					c-0.245-0.22-0.916,0.435-0.959,0.895c-0.158,0.229-0.623,0.034-0.63,0.327C-518.591,206.797-518.687,208.725-518.106,208.914z"
					/>
				<path fill="#DDB918" d="M-505.159,205.05c0.359,0.658,1.55,0.639,1.209-0.257c0.767-0.563,0.89-1.541,0.15-2.217
					c-0.088,0.062-0.193,0.123-0.277,0.188c-0.539-0.595-0.307-1.588-1.308-1.604c-0.669-0.012-0.409,0.622-1.087-0.07
					c-0.615-0.631-0.189-1.098-1.08-0.739c-0.381,0.151-0.601,0.688-1.041,0.695c-0.441,0.01-0.598-0.459-0.979-0.463
					c-0.816-0.008-1.3,1.117-0.896,1.749c0.498-0.148,0.957-0.088,1.414-0.196c-0.689,1.209,1.023,0.895,1.531,0.425
					c0.026,0.129,0.045,0.497,0.03,0.628c-0.618,0.563-0.909,0.655-0.946,1.394c-0.025,0.52,0.096,1.169,0.526,1.503
					c0.437-0.029,0.734-0.337,1.101-0.614c0.84,0.93,1.194,0.912,1.805-0.192c-0.061,0.048-0.146,0.095-0.19,0.153"/>
				<path fill="#DDB918" d="M-514.202,204.998c0.358,0.659,1.55,0.639,1.209-0.257c0.766-0.564,0.89-1.541,0.15-2.217
					c-0.089,0.06-0.193,0.123-0.277,0.188c-0.539-0.593-0.307-1.587-1.307-1.603c-0.67-0.012-0.41,0.622-1.088-0.07
					c-0.615-0.63-0.189-1.097-1.08-0.741c-0.381,0.153-0.601,0.688-1.042,0.697c-0.44,0.008-0.598-0.459-0.979-0.463
					c-0.815-0.008-1.299,1.117-0.896,1.749c0.499-0.15,0.957-0.088,1.414-0.198c-0.69,1.209,1.022,0.896,1.531,0.427
					c0.026,0.13,0.045,0.496,0.029,0.629c-0.618,0.562-0.909,0.653-0.945,1.394c-0.026,0.518,0.095,1.169,0.526,1.503
					c0.436-0.032,0.735-0.337,1.1-0.616c0.84,0.933,1.194,0.914,1.804-0.19c-0.06,0.048-0.144,0.094-0.19,0.151"/>
			</g>
			<path fill="#E3C803" d="M-525.776,213.785c-0.339,0-0.813-1.258-0.85-1.597c-0.058-0.525-0.086-1.058-0.086-1.583
				c0-7.961,6.477-14.438,14.436-14.438c3.411,0,6.651,1.184,9.243,3.352c0.296,0.248,1.146,1.51,0.871,1.792
				c-0.276,0.283-0.729,0.287-1.012,0.01c-2.445-2.399-5.679-3.721-9.104-3.721c-7.171,0-13.005,5.835-13.005,13.008
				c0,0.781,0.07,1.566,0.21,2.336c0.069,0.389-0.188,0.761-0.576,0.832C-525.691,213.781-525.734,213.785-525.776,213.785
				L-525.776,213.785z"/>
		</g>
		
			<circle fill="none" stroke="#C0DEE8" stroke-width="0.4281" stroke-miterlimit="10" stroke-dasharray="1.6136,0.8233" cx="-515.194" cy="205.208" r="17.525"/>
		
			<circle fill="none" stroke="#CEE5ED" stroke-width="0.8233" stroke-miterlimit="10" stroke-dasharray="2.4205,0.8068" cx="-515.194" cy="205.208" r="18.598"/>
	</g>
</g>
<g id="Aurinko_x5F_kesk" display="none">
	<g display="inline">
		
			<linearGradient id="SVGID_6_" gradientUnits="userSpaceOnUse" x1="-626.3145" y1="1096.5916" x2="-626.7745" y2="1122.9537" gradientTransform="matrix(1 0 0 1 117.7251 -902.8418)">
			<stop  offset="0.5455" style="stop-color:#FFE300"/>
			<stop  offset="0.7333" style="stop-color:#FEE102"/>
			<stop  offset="0.8297" style="stop-color:#FAD908"/>
			<stop  offset="0.9053" style="stop-color:#F4CC13"/>
			<stop  offset="0.9697" style="stop-color:#EBB922"/>
			<stop  offset="1" style="stop-color:#E5AD2B"/>
		</linearGradient>
		<circle fill="url(#SVGID_6_)" cx="-508.82" cy="206.93" r="13.183"/>
		
			<radialGradient id="SVGID_7_" cx="-643.3232" cy="1057.0427" r="10.7753" fx="-646.4211" fy="1057.1101" gradientTransform="matrix(1.0433 0 0 1.1003 162.2364 -959.5677)" gradientUnits="userSpaceOnUse">
			<stop  offset="0.2061" style="stop-color:#FFFFFF"/>
			<stop  offset="0.6606" style="stop-color:#F8F2AA"/>
			<stop  offset="0.727" style="stop-color:#FAF083"/>
			<stop  offset="0.8134" style="stop-color:#FCEE57"/>
			<stop  offset="0.8908" style="stop-color:#FDEC37"/>
			<stop  offset="0.9557" style="stop-color:#FEEB23"/>
			<stop  offset="1" style="stop-color:#FEEB1C"/>
		</radialGradient>
		<path fill="url(#SVGID_7_)" d="M-496.546,204.247c0,5.799-5.553,10.499-12.396,10.499c-6.848,0-12.397-4.699-12.397-10.499
			c0-5.798,5.551-10.499,12.397-10.499C-502.098,193.748-496.546,198.449-496.546,204.247z"/>
		<g>
			
				<linearGradient id="SVGID_8_" gradientUnits="userSpaceOnUse" x1="-855.3545" y1="1210.5466" x2="-850.3164" y2="1201.8204" gradientTransform="matrix(0.9239 -0.3827 0.3827 0.9239 -188.5489 -1250.0292)">
				<stop  offset="0.2667" style="stop-color:#FFE300"/>
				<stop  offset="0.4224" style="stop-color:#FDDE03"/>
				<stop  offset="0.6137" style="stop-color:#F6CF0D"/>
				<stop  offset="0.8226" style="stop-color:#EAB61C"/>
				<stop  offset="1" style="stop-color:#DE9B2D"/>
			</linearGradient>
			<polygon fill="url(#SVGID_8_)" points="-511.653,193.835 -516.077,195.668 -517.79,185.279 			"/>
			
				<linearGradient id="SVGID_9_" gradientUnits="userSpaceOnUse" x1="-1348.8643" y1="1149.1521" x2="-1343.8264" y2="1140.4263" gradientTransform="matrix(0.3827 -0.9239 0.9239 0.3827 -1066.9739 -1482.2314)">
				<stop  offset="0.2667" style="stop-color:#FFE300"/>
				<stop  offset="0.4224" style="stop-color:#FDDE03"/>
				<stop  offset="0.6137" style="stop-color:#F6CF0D"/>
				<stop  offset="0.8226" style="stop-color:#EAB61C"/>
				<stop  offset="1" style="stop-color:#DE9B2D"/>
			</linearGradient>
			<polygon fill="url(#SVGID_9_)" points="-520.084,199.674 -521.916,204.097 -530.472,197.963 			"/>
			
				<linearGradient id="SVGID_10_" gradientUnits="userSpaceOnUse" x1="-1654.7324" y1="756.8884" x2="-1649.6948" y2="748.163" gradientTransform="matrix(-0.3827 -0.9239 0.9239 -0.3827 -1852.5675 -1025.5002)">
				<stop  offset="0.2667" style="stop-color:#FFE300"/>
				<stop  offset="0.4224" style="stop-color:#FDDE03"/>
				<stop  offset="0.6137" style="stop-color:#F6CF0D"/>
				<stop  offset="0.8226" style="stop-color:#EAB61C"/>
				<stop  offset="1" style="stop-color:#DE9B2D"/>
			</linearGradient>
			<polygon fill="url(#SVGID_10_)" points="-521.916,209.764 -520.084,214.188 -530.472,215.901 			"/>
			
				<linearGradient id="SVGID_11_" gradientUnits="userSpaceOnUse" x1="-1593.3403" y1="263.1277" x2="-1588.3022" y2="254.4015" gradientTransform="matrix(-0.9239 -0.3827 0.3827 -0.9239 -2084.7717 -147.0762)">
				<stop  offset="0.2667" style="stop-color:#FFE300"/>
				<stop  offset="0.4224" style="stop-color:#FDDE03"/>
				<stop  offset="0.6137" style="stop-color:#F6CF0D"/>
				<stop  offset="0.8226" style="stop-color:#EAB61C"/>
				<stop  offset="1" style="stop-color:#DE9B2D"/>
			</linearGradient>
			<polygon fill="url(#SVGID_11_)" points="-516.076,218.194 -511.653,220.026 -517.789,228.582 			"/>
			
				<linearGradient id="SVGID_12_" gradientUnits="userSpaceOnUse" x1="-1201.0791" y1="-42.4861" x2="-1196.0411" y2="-51.2124" gradientTransform="matrix(-0.9239 0.3827 -0.3827 -0.9239 -1628.041 638.5217)">
				<stop  offset="0.2667" style="stop-color:#FFE300"/>
				<stop  offset="0.4224" style="stop-color:#FDDE03"/>
				<stop  offset="0.6137" style="stop-color:#F6CF0D"/>
				<stop  offset="0.8226" style="stop-color:#EAB61C"/>
				<stop  offset="1" style="stop-color:#DE9B2D"/>
			</linearGradient>
			<polygon fill="url(#SVGID_12_)" points="-505.987,220.025 -501.565,218.193 -499.852,228.582 			"/>
			
				<linearGradient id="SVGID_13_" gradientUnits="userSpaceOnUse" x1="-707.3179" y1="18.6531" x2="-702.2802" y2="9.9275" gradientTransform="matrix(-0.3827 0.9239 -0.9239 -0.3827 -749.6151 870.7251)">
				<stop  offset="0.2667" style="stop-color:#FFE300"/>
				<stop  offset="0.4224" style="stop-color:#FDDE03"/>
				<stop  offset="0.6137" style="stop-color:#F6CF0D"/>
				<stop  offset="0.8226" style="stop-color:#EAB61C"/>
				<stop  offset="1" style="stop-color:#DE9B2D"/>
			</linearGradient>
			<polygon fill="url(#SVGID_13_)" points="-497.557,214.185 -495.725,209.763 -487.169,215.898 			"/>
			
				<linearGradient id="SVGID_14_" gradientUnits="userSpaceOnUse" x1="-401.7021" y1="411.1687" x2="-396.6643" y2="402.4429" gradientTransform="matrix(0.3827 0.9239 -0.9239 0.3827 35.9815 413.9929)">
				<stop  offset="0.2667" style="stop-color:#FFE300"/>
				<stop  offset="0.4224" style="stop-color:#FDDE03"/>
				<stop  offset="0.6137" style="stop-color:#F6CF0D"/>
				<stop  offset="0.8226" style="stop-color:#EAB61C"/>
				<stop  offset="1" style="stop-color:#DE9B2D"/>
			</linearGradient>
			<polygon fill="url(#SVGID_14_)" points="-495.725,204.096 -497.557,199.673 -487.169,197.961 			"/>
			
				<linearGradient id="SVGID_15_" gradientUnits="userSpaceOnUse" x1="-462.8462" y1="904.6755" x2="-457.8075" y2="895.9485" gradientTransform="matrix(0.9239 0.3827 -0.3827 0.9239 268.1868 -464.4301)">
				<stop  offset="0.2667" style="stop-color:#FFE300"/>
				<stop  offset="0.4224" style="stop-color:#FDDE03"/>
				<stop  offset="0.6137" style="stop-color:#F6CF0D"/>
				<stop  offset="0.8226" style="stop-color:#EAB61C"/>
				<stop  offset="1" style="stop-color:#DE9B2D"/>
			</linearGradient>
			<polygon fill="url(#SVGID_15_)" points="-501.565,195.667 -505.989,193.835 -499.852,185.278 			"/>
		</g>
		<g>
			<circle fill="none" stroke="#D68122" stroke-width="1.1227" cx="-508.82" cy="206.93" r="13.183"/>
			<polygon fill="#D4831D" points="-505.303,193.844 -512.338,193.844 -508.82,187.707 			"/>
			<polygon fill="#D4831D" points="-515.588,195.189 -520.562,200.163 -522.415,193.337 			"/>
			<polygon fill="#D4831D" points="-521.908,203.414 -521.908,210.448 -528.045,206.931 			"/>
			<polygon fill="#D4831D" points="-520.562,213.697 -515.588,218.671 -522.414,220.525 			"/>
			<polygon fill="#D4831D" points="-512.338,220.018 -505.303,220.018 -508.82,226.154 			"/>
			<polygon fill="#D4831D" points="-502.053,218.671 -497.079,213.697 -495.227,220.524 			"/>
			<polygon fill="#D4831D" points="-495.733,210.448 -495.733,203.413 -489.596,206.929 			"/>
			<polygon fill="#D4831D" points="-497.079,200.163 -502.053,195.189 -495.227,193.337 			"/>
		</g>
	</g>
</g>
<g id="Pilvi">
	<g>
		<g>
			
				<linearGradient id="SVGID_16_" gradientUnits="userSpaceOnUse" x1="-77.0234" y1="931.3904" x2="-67.4507" y2="952.8907" gradientTransform="matrix(1 0 0 1 117.7251 -902.8418)">
				<stop  offset="0.503" style="stop-color:#FFFFFF"/>
				<stop  offset="0.6228" style="stop-color:#E8F2F9"/>
				<stop  offset="0.8724" style="stop-color:#AECFEB"/>
				<stop  offset="1" style="stop-color:#8EBCE3"/>
			</linearGradient>
			<path fill="url(#SVGID_16_)" d="M55.506,47.714c-0.344,0.414-20.393,0.64-20.771,0.064c-3.282-4.961-2.366-12.035,2.464-16.695
				c5.389-5.199,13.606-5.421,18.354-0.5C59.952,35.143,59.833,42.518,55.506,47.714z"/>
			
				<linearGradient id="SVGID_17_" gradientUnits="userSpaceOnUse" x1="-86.2788" y1="926.2263" x2="-62.5917" y2="936.7724" gradientTransform="matrix(1 0 0 1 117.7251 -902.8418)">
				<stop  offset="0.2182" style="stop-color:#FFFFFF"/>
				<stop  offset="0.3912" style="stop-color:#FCFDFE"/>
				<stop  offset="0.5346" style="stop-color:#F1F7FC"/>
				<stop  offset="0.6674" style="stop-color:#E0EDF7"/>
				<stop  offset="0.7938" style="stop-color:#C8DEF1"/>
				<stop  offset="0.9145" style="stop-color:#A9CCEA"/>
				<stop  offset="1" style="stop-color:#8EBCE3"/>
			</linearGradient>
			<path fill="url(#SVGID_17_)" d="M52.217,37.915c-5.389,5.195-13.754,5.267-18.686,0.152c-4.931-5.111-4.56-13.469,0.828-18.667
				c5.389-5.197,13.754-5.268,18.684-0.154C57.976,24.358,57.607,32.716,52.217,37.915z"/>
			
				<linearGradient id="SVGID_18_" gradientUnits="userSpaceOnUse" x1="-92.7822" y1="927.907" x2="-74.0745" y2="944.1695" gradientTransform="matrix(1 0 0 1 117.7251 -902.8418)">
				<stop  offset="0.1576" style="stop-color:#FFFFFF"/>
				<stop  offset="0.3353" style="stop-color:#FCFDFE"/>
				<stop  offset="0.4908" style="stop-color:#F1F7FB"/>
				<stop  offset="0.638" style="stop-color:#DFECF7"/>
				<stop  offset="0.78" style="stop-color:#C6DDF1"/>
				<stop  offset="0.9172" style="stop-color:#A5CAE9"/>
				<stop  offset="1" style="stop-color:#8EBCE3"/>
			</linearGradient>
			<path fill="url(#SVGID_18_)" d="M42.894,42.108c-5.388,5.199-13.605,5.42-18.354,0.498s-4.229-13.125,1.158-18.322
				c5.386-5.198,13.605-5.42,18.353-0.499C48.801,28.708,48.284,36.913,42.894,42.108z"/>
			
				<linearGradient id="SVGID_19_" gradientUnits="userSpaceOnUse" x1="-96.833" y1="930.8738" x2="-94.6456" y2="951.6869" gradientTransform="matrix(1 0 0 1 117.7251 -902.8418)">
				<stop  offset="0.2667" style="stop-color:#FFFFFF"/>
				<stop  offset="0.4131" style="stop-color:#FBFDFE"/>
				<stop  offset="0.5496" style="stop-color:#F0F6FB"/>
				<stop  offset="0.6822" style="stop-color:#DDEBF7"/>
				<stop  offset="0.8125" style="stop-color:#C3DBF0"/>
				<stop  offset="0.9398" style="stop-color:#A1C7E8"/>
				<stop  offset="1" style="stop-color:#8EBCE3"/>
			</linearGradient>
			<path fill="url(#SVGID_19_)" d="M34.06,47.618c-0.451,0.594-25.827,0.604-26.027,0.168c-0.398-0.873,2.598-3.088,3.127-3.891
				c5.574-8.42,7.709-17.166,16.005-16.292c2.468,0.262,4.744,1.523,6.542,3.387C37.963,35.407,37.988,42.46,34.06,47.618z"/>
		</g>
		<path fill="#005E97" d="M59.322,38.62c-0.231-2.904-1.342-5.502-3.016-7.506c0.012-0.033,0.021-0.072,0.026-0.121
			c1.342-9.373-2.967-14.471-9.588-16.167c-4.826-1.236-9.748,0.502-12.99,4.099c-4.938,0.351-9.429,3.651-11.383,8.59
			c-2.452,0.75-4.435,2.373-5.779,4.488c-0.002,0-0.533,0.959-0.882,1.662c-3.658,6.842-6.608,10.713-8.68,12.799
			c-0.482,0.486-2.62,2.32-2.62,2.32h51.206l0.271,0.002C58.258,46.221,59.638,42.567,59.322,38.62z M54.25,47.01H9.883
			c4.768-5.824,7.358-11.824,8.02-12.986c0.945-1.568,2.124-2.892,3.695-3.803c1.106-0.669,1.981-0.968,2.91-1.132
			c1.885-0.415,3.79-0.274,5.569,0.329c1.029,0.396,1.376,0.509,2.388,1.141c0.757,0.471,1.472,1.026,2.125,1.666l0.07-0.146
			c-0.673-0.918-1.447-1.729-2.295-2.418c-1.015-0.866-1.396-1.077-2.305-1.477c-1.504-0.734-3.14-1.13-4.799-1.119
			c1.367-2.875,3.809-5.138,6.96-6.095c1.063-0.321,1.771-0.42,3.067-0.479c4.558-0.059,8.885,2.71,11.015,7.107l0.151-0.194
			c-1.412-3.922-4.565-7.051-8.767-8.125c-0.315-0.082-0.633-0.145-0.948-0.2c1.151-0.938,2.493-1.656,3.997-2.078
			c6.246-1.753,12.664,2.144,14.541,8.832c0.394,1.4,0.455,3.238,0.396,4.616l-0.269,1.424c1.119,1.771,1.896,2.951,2.076,5.238
			C57.79,40.938,56.504,44.485,54.25,47.01z"/>
	</g>
</g>
<g id="Pilvi_pikku" display="none">
	<g display="inline">
		<g>
			
				<linearGradient id="SVGID_20_" gradientUnits="userSpaceOnUse" x1="-612.1143" y1="1114.7966" x2="-604.959" y2="1130.8676" gradientTransform="matrix(1 0 0 1 117.7251 -902.8418)">
				<stop  offset="0.503" style="stop-color:#FFFFFF"/>
				<stop  offset="0.6238" style="stop-color:#E8F2FA"/>
				<stop  offset="0.8753" style="stop-color:#AED0EC"/>
				<stop  offset="1" style="stop-color:#8FBEE4"/>
			</linearGradient>
			<path fill="url(#SVGID_20_)" d="M-483.323,226.28c-0.259,0.307-15.241,0.477-15.525,0.048c-2.454-3.709-1.77-8.996,1.841-12.479
				c4.028-3.888,10.169-4.054,13.719-0.372C-480.001,216.883-480.092,222.397-483.323,226.28z"/>
			
				<linearGradient id="SVGID_21_" gradientUnits="userSpaceOnUse" x1="-619.0337" y1="1110.9353" x2="-601.3275" y2="1118.8186" gradientTransform="matrix(1 0 0 1 117.7251 -902.8418)">
				<stop  offset="0.2182" style="stop-color:#FFFFFF"/>
				<stop  offset="0.3919" style="stop-color:#FCFDFE"/>
				<stop  offset="0.5358" style="stop-color:#F1F7FC"/>
				<stop  offset="0.6691" style="stop-color:#E0EDF8"/>
				<stop  offset="0.7959" style="stop-color:#C8DFF2"/>
				<stop  offset="0.9172" style="stop-color:#A9CDEA"/>
				<stop  offset="1" style="stop-color:#8FBEE4"/>
			</linearGradient>
			<path fill="url(#SVGID_21_)" d="M-485.781,218.953c-4.028,3.886-10.28,3.938-13.968,0.116c-3.686-3.82-3.409-10.067,0.619-13.953
				c4.025-3.885,10.279-3.937,13.966-0.115C-481.477,208.823-481.754,215.069-485.781,218.953z"/>
			
				<linearGradient id="SVGID_22_" gradientUnits="userSpaceOnUse" x1="-623.894" y1="1112.1931" x2="-609.9114" y2="1124.3483" gradientTransform="matrix(1 0 0 1 117.7251 -902.8418)">
				<stop  offset="0.1576" style="stop-color:#FFFFFF"/>
				<stop  offset="0.336" style="stop-color:#FCFDFE"/>
				<stop  offset="0.4921" style="stop-color:#F1F7FC"/>
				<stop  offset="0.6399" style="stop-color:#DFECF7"/>
				<stop  offset="0.7825" style="stop-color:#C6DEF1"/>
				<stop  offset="0.9201" style="stop-color:#A5CBE9"/>
				<stop  offset="1" style="stop-color:#8FBEE4"/>
			</linearGradient>
			<path fill="url(#SVGID_22_)" d="M-492.751,222.09c-4.025,3.887-10.17,4.055-13.718,0.373c-3.549-3.68-3.162-9.812,0.865-13.695
				c4.026-3.886,10.171-4.053,13.72-0.371C-488.334,212.073-488.722,218.205-492.751,222.09z"/>
			
				<linearGradient id="SVGID_23_" gradientUnits="userSpaceOnUse" x1="-626.9204" y1="1114.4119" x2="-625.2856" y2="1129.9658" gradientTransform="matrix(1 0 0 1 117.7251 -902.8418)">
				<stop  offset="0.2667" style="stop-color:#FFFFFF"/>
				<stop  offset="0.4137" style="stop-color:#FBFDFE"/>
				<stop  offset="0.5508" style="stop-color:#F0F6FB"/>
				<stop  offset="0.684" style="stop-color:#DDEBF7"/>
				<stop  offset="0.8147" style="stop-color:#C3DCF0"/>
				<stop  offset="0.9426" style="stop-color:#A1C8E8"/>
				<stop  offset="1" style="stop-color:#8FBEE4"/>
			</linearGradient>
			<path fill="url(#SVGID_23_)" d="M-499.352,226.206c-0.337,0.444-19.306,0.452-19.455,0.126c-0.298-0.651,1.94-2.309,2.337-2.905
				c4.166-6.295,5.762-12.829,11.963-12.179c1.844,0.195,3.544,1.141,4.889,2.531C-496.434,217.08-496.419,222.352-499.352,226.206z
				"/>
		</g>
		<path fill="#035E98" d="M-480.472,219.481c-0.173-2.171-1.003-4.111-2.253-5.611c0.009-0.021,0.015-0.052,0.02-0.09
			c1.002-7.004-2.218-10.815-7.166-12.083c-3.607-0.924-7.285,0.375-9.709,3.063c-3.69,0.262-7.049,2.729-8.508,6.42
			c-1.833,0.56-3.315,1.771-4.319,3.354c-0.003,0-0.399,0.717-0.66,1.243c-2.734,5.113-4.939,8.006-6.487,9.564
			c-0.361,0.364-1.958,1.732-1.958,1.732h38.273l0.201,0.003C-481.264,225.165-480.236,222.434-480.472,219.481z M-484.263,225.755
			h-33.161c3.563-4.354,5.5-8.839,5.993-9.706c0.708-1.175,1.588-2.162,2.762-2.845c0.829-0.5,1.483-0.723,2.176-0.845
			c1.407-0.312,2.833-0.206,4.164,0.246c0.77,0.295,1.028,0.379,1.784,0.852c0.565,0.354,1.1,0.771,1.589,1.244l0.053-0.105
			c-0.501-0.688-1.08-1.293-1.717-1.81c-0.757-0.646-1.041-0.806-1.721-1.104c-1.125-0.552-2.348-0.847-3.588-0.836
			c1.021-2.149,2.848-3.843,5.202-4.558c0.797-0.24,1.324-0.313,2.294-0.356c3.405-0.044,6.642,2.023,8.231,5.313l0.114-0.146
			c-1.057-2.933-3.413-5.271-6.553-6.074c-0.235-0.063-0.473-0.107-0.709-0.149c0.859-0.701,1.865-1.236,2.988-1.553
			c4.669-1.31,9.465,1.604,10.867,6.601c0.294,1.051,0.342,2.424,0.296,3.45l-0.2,1.065c0.837,1.322,1.417,2.206,1.552,3.914
			C-481.615,221.215-482.577,223.867-484.263,225.755z"/>
	</g>
</g>
<g id="Vedet">
	<g>
		<path d="M25.897,36.745c0,0,0.063-0.162-0.069-0.229c-0.146-0.068-0.283,0.112-0.283,0.112s-3.12,5.599-8.893,9.699
			c-5.426,3.854-4.342,8.805-3.194,10.051c1.149,1.252,3.545,2.832,6.856,1.015c3.524-1.937,3.584-6.935,3.584-8.57
			S23.743,42.19,25.897,36.745z"/>
		
			<radialGradient id="SVGID_24_" cx="-100.1787" cy="955.2351" r="6.9785" gradientTransform="matrix(1 0 0 1 117.7251 -902.8418)" gradientUnits="userSpaceOnUse">
			<stop  offset="0.2045" style="stop-color:#FFFFFF"/>
			<stop  offset="0.5412" style="stop-color:#7C98C9"/>
			<stop  offset="0.6468" style="stop-color:#809CCB"/>
			<stop  offset="0.7581" style="stop-color:#8DA9D1"/>
			<stop  offset="0.8721" style="stop-color:#A2BEDA"/>
			<stop  offset="0.9872" style="stop-color:#BFDBE7"/>
			<stop  offset="1" style="stop-color:#C3DFE9"/>
		</radialGradient>
		<path fill="url(#SVGID_24_)" d="M22.726,42.989c0.15-0.396-0.181-0.4-0.308-0.113c-0.056,0.125-1.069,2.406-5.425,5.224
			c-3.8,2.455-2.952,5.983-2.172,6.834c0.782,0.852,2.411,1.926,4.663,0.688c2.396-1.315,2.33-4.723,2.437-5.828
			C22.118,47.774,22.192,44.384,22.726,42.989z"/>
	</g>
	<g>
		<path d="M40.368,36.745c0,0,0.064-0.162-0.07-0.229c-0.146-0.068-0.281,0.112-0.281,0.112s-3.119,5.599-8.895,9.699
			c-5.428,3.854-4.343,8.805-3.196,10.051c1.15,1.252,3.548,2.832,6.858,1.015c3.523-1.937,3.584-6.935,3.584-8.57
			S38.213,42.19,40.368,36.745z"/>
		
			<radialGradient id="SVGID_25_" cx="-85.7075" cy="955.2351" r="6.9794" gradientTransform="matrix(1 0 0 1 117.7251 -902.8418)" gradientUnits="userSpaceOnUse">
			<stop  offset="0.2045" style="stop-color:#FFFFFF"/>
			<stop  offset="0.5412" style="stop-color:#7C98C9"/>
			<stop  offset="0.6468" style="stop-color:#809CCB"/>
			<stop  offset="0.7581" style="stop-color:#8DA9D1"/>
			<stop  offset="0.8721" style="stop-color:#A2BEDA"/>
			<stop  offset="0.9872" style="stop-color:#BFDBE7"/>
			<stop  offset="1" style="stop-color:#C3DFE9"/>
		</radialGradient>
		<path fill="url(#SVGID_25_)" d="M37.2,42.989c0.147-0.396-0.183-0.4-0.312-0.113c-0.054,0.125-1.068,2.406-5.423,5.224
			c-3.801,2.455-2.953,5.983-2.174,6.834c0.783,0.852,2.413,1.926,4.663,0.688c2.398-1.315,2.332-4.723,2.439-5.828
			C36.588,47.774,36.661,44.384,37.2,42.989z"/>
	</g>
</g>
<g id="Salama" display="none">
	<g display="inline">
		<polygon fill="#D4831D" points="-508.761,208.458 -516.422,225.396 -511.714,224.288 -517.068,236.286 -512.914,233.748 
			-500.686,217.919 -505.344,218.89 -496.393,205.967 		"/>
		<polygon fill="#EEE300" points="-506.862,209.629 -514.761,223.982 -508.715,222.688 -513.791,233.026 -503.987,219.889 
			-508.761,221.126 -500.454,208.242 		"/>
	</g>
	<g display="inline">
		<polygon fill="#D4831D" points="-494.602,208.458 -502.26,225.396 -497.553,224.288 -502.909,236.286 -498.755,233.748 
			-486.524,217.919 -491.186,218.89 -482.233,205.967 		"/>
		<polygon fill="#EEE300" points="-492.7,209.629 -500.6,223.982 -494.553,222.688 -499.632,233.026 -489.825,219.889 
			-494.602,221.126 -486.296,208.242 		"/>
	</g>
</g>
<g id="Lumet" display="none">
	<g display="inline">
		
			<radialGradient id="SVGID_26_" cx="-612.062" cy="1108.8171" r="8.9465" gradientTransform="matrix(1 0 0 1 117.7251 -902.8418)" gradientUnits="userSpaceOnUse">
			<stop  offset="0.2545" style="stop-color:#FFFFFF"/>
			<stop  offset="0.4164" style="stop-color:#FBFBFD"/>
			<stop  offset="0.5797" style="stop-color:#EFF0F7"/>
			<stop  offset="0.7436" style="stop-color:#DBDEED"/>
			<stop  offset="0.9072" style="stop-color:#BFC4E0"/>
			<stop  offset="1" style="stop-color:#ABB2D6"/>
		</radialGradient>
		<circle fill="url(#SVGID_26_)" cx="-494.337" cy="205.975" r="8.947"/>
		<g>
			
				<radialGradient id="SVGID_27_" cx="-612.062" cy="1108.53" r="7.9463" gradientTransform="matrix(1 0 0 1 117.7251 -902.8418)" gradientUnits="userSpaceOnUse">
				<stop  offset="0.1212" style="stop-color:#808BBE"/>
				<stop  offset="0.1783" style="stop-color:#747CB4"/>
				<stop  offset="0.2712" style="stop-color:#676BA8"/>
				<stop  offset="0.3869" style="stop-color:#5E60A0"/>
				<stop  offset="0.5493" style="stop-color:#58599B"/>
				<stop  offset="1" style="stop-color:#57579A"/>
			</radialGradient>
			<path fill="url(#SVGID_27_)" d="M-486.374,203.622c0,0-1.698,0.831-6.698,1.317c2.893-4.104,4.452-5.096,4.452-5.096
				l-3.521-2.086c0,0-0.135,1.893-2.211,6.462c-2.104-4.555-2.188-6.404-2.188-6.404l-3.565,2.009c0,0,1.569,1.057,4.492,5.146
				c-5-0.454-6.642-1.312-6.642-1.312l-0.045,4.094c0,0,1.701-0.832,6.701-1.315c-2.894,4.102-4.453,5.097-4.453,5.097l3.52,2.084
				c0,0,0.136-1.892,2.212-6.461c2.104,4.555,2.188,6.405,2.188,6.405l3.566-2.009c0,0-1.57-1.061-4.492-5.146
				c5.002,0.454,6.643,1.31,6.643,1.31L-486.374,203.622z"/>
			
				<radialGradient id="SVGID_28_" cx="-612.0645" cy="1108.53" r="9.2534" gradientTransform="matrix(1 0 0 1 117.7251 -902.8418)" gradientUnits="userSpaceOnUse">
				<stop  offset="0.1212" style="stop-color:#14152E"/>
				<stop  offset="0.3521" style="stop-color:#424562"/>
				<stop  offset="0.6585" style="stop-color:#7B80A0"/>
				<stop  offset="0.8831" style="stop-color:#9EA4C7"/>
				<stop  offset="1" style="stop-color:#ABB2D6"/>
			</radialGradient>
			<path fill="url(#SVGID_28_)" d="M-496.544,214.922c-0.225,0-0.451-0.059-0.653-0.179l-3.521-2.085
				c-0.395-0.229-0.639-0.65-0.645-1.104c-0.009-0.455,0.223-0.883,0.606-1.127l0,0c-0.002,0,0.773-0.537,2.221-2.286
				c-2.295,0.389-3.192,0.793-3.204,0.797c-0.408,0.188-0.892,0.154-1.269-0.088c-0.375-0.243-0.606-0.661-0.604-1.109l0.045-4.094
				c0.006-0.455,0.248-0.875,0.639-1.11c0.389-0.233,0.871-0.247,1.277-0.037l0,0c0,0,0.854,0.402,3.092,0.781
				c-1.484-1.793-2.281-2.37-2.293-2.377c-0.367-0.259-0.58-0.692-0.557-1.141c0.022-0.449,0.268-0.858,0.657-1.078l3.566-2.008
				c0.397-0.224,0.881-0.226,1.279-0.004c0.397,0.222,0.651,0.634,0.672,1.087l0,0c0.002,0,0.08,0.941,0.871,3.067
				c0.811-2.182,0.909-3.162,0.911-3.174c0.041-0.446,0.312-0.848,0.712-1.052c0.399-0.204,0.875-0.196,1.262,0.031l3.521,2.084
				c0.394,0.232,0.638,0.651,0.644,1.106c0.008,0.455-0.224,0.881-0.607,1.126l0,0c0.002,0-0.772,0.539-2.221,2.289
				c2.295-0.391,3.193-0.793,3.205-0.798c0.408-0.188,0.891-0.156,1.268,0.089c0.377,0.244,0.609,0.661,0.604,1.109l-0.043,4.093
				c-0.006,0.456-0.246,0.876-0.64,1.108c-0.391,0.233-0.875,0.246-1.278,0.036l0,0c0,0-0.854-0.4-3.09-0.777
				c1.483,1.792,2.278,2.367,2.29,2.377c0.367,0.259,0.582,0.69,0.56,1.141c-0.023,0.449-0.271,0.857-0.66,1.077l-3.566,2.009
				c-0.396,0.225-0.881,0.227-1.278,0.004c-0.396-0.223-0.652-0.633-0.672-1.089l0,0c-0.002,0.002-0.08-0.94-0.871-3.063
				c-0.81,2.181-0.91,3.157-0.912,3.174c-0.041,0.444-0.31,0.848-0.711,1.051C-496.126,214.872-496.333,214.922-496.544,214.922
				L-496.544,214.922z"/>
		</g>
		<path fill="#FFFFFF" stroke="#FFFFFF" stroke-width="0.5613" stroke-miterlimit="10" d="M-486.374,203.954
			c0,0-1.698,0.831-6.698,1.317c2.893-4.104,4.452-5.098,4.452-5.098l-3.521-2.085c0,0-0.135,1.893-2.211,6.464
			c-2.104-4.556-2.188-6.404-2.188-6.404l-3.565,2.008c0,0,1.569,1.058,4.492,5.146c-5-0.454-6.642-1.312-6.642-1.312l-0.045,4.093
			c0,0,1.701-0.831,6.701-1.314c-2.894,4.103-4.453,5.096-4.453,5.096l3.52,2.085c0,0,0.136-1.891,2.212-6.46
			c2.104,4.553,2.188,6.403,2.188,6.403l3.566-2.011c0,0-1.57-1.057-4.492-5.145c5.002,0.453,6.643,1.31,6.643,1.31
			L-486.374,203.954z"/>
		<g>
			<polygon fill="#426BAC" points="-492.571,198.339 -492.432,197.506 -488.032,200.117 -488.669,200.656 			"/>
		</g>
		<g>
			<polygon fill="#426BAC" points="-500.063,200.601 -500.716,200.066 -496.253,197.559 -496.104,198.381 			"/>
		</g>
		<g>
			<polygon fill="#426BAC" points="-501.932,208.236 -502.723,208.533 -502.661,203.417 -501.876,203.698 			"/>
		</g>
		<g>
			<polygon fill="#426BAC" points="-496.141,213.723 -496.276,214.557 -500.68,211.946 -500.042,211.406 			"/>
		</g>
		<g>
			<polygon fill="#426BAC" points="-488.614,211.46 -487.96,211.997 -492.423,214.502 -492.571,213.682 			"/>
		</g>
		<g>
			<polygon fill="#426BAC" points="-486.741,203.76 -485.95,203.46 -486.01,208.577 -486.798,208.294 			"/>
		</g>
	</g>
	<g display="inline">
		
			<radialGradient id="SVGID_29_" cx="-629.5249" cy="1108.8171" r="8.9475" gradientTransform="matrix(1 0 0 1 117.7251 -902.8418)" gradientUnits="userSpaceOnUse">
			<stop  offset="0.2545" style="stop-color:#FFFFFF"/>
			<stop  offset="0.4164" style="stop-color:#FBFBFD"/>
			<stop  offset="0.5797" style="stop-color:#EFF0F7"/>
			<stop  offset="0.7436" style="stop-color:#DBDEED"/>
			<stop  offset="0.9072" style="stop-color:#BFC4E0"/>
			<stop  offset="1" style="stop-color:#ABB2D6"/>
		</radialGradient>
		<circle fill="url(#SVGID_29_)" cx="-511.8" cy="205.975" r="8.948"/>
		<g>
			
				<radialGradient id="SVGID_30_" cx="-629.5269" cy="1108.53" r="7.9473" gradientTransform="matrix(1 0 0 1 117.7251 -902.8418)" gradientUnits="userSpaceOnUse">
				<stop  offset="0.1212" style="stop-color:#808BBE"/>
				<stop  offset="0.1783" style="stop-color:#747CB4"/>
				<stop  offset="0.2712" style="stop-color:#676BA8"/>
				<stop  offset="0.3869" style="stop-color:#5E60A0"/>
				<stop  offset="0.5493" style="stop-color:#58599B"/>
				<stop  offset="1" style="stop-color:#57579A"/>
			</radialGradient>
			<path fill="url(#SVGID_30_)" d="M-503.837,203.622c0,0-1.701,0.831-6.702,1.317c2.895-4.104,4.454-5.096,4.454-5.096
				l-3.521-2.086c0,0-0.135,1.893-2.211,6.462c-2.104-4.555-2.188-6.404-2.188-6.404l-3.565,2.009c0,0,1.568,1.057,4.489,5.146
				c-5-0.454-6.64-1.312-6.64-1.312l-0.045,4.094c0,0,1.702-0.832,6.703-1.315c-2.894,4.102-4.455,5.097-4.455,5.097l3.522,2.084
				c0,0,0.133-1.892,2.209-6.461c2.104,4.555,2.188,6.405,2.188,6.405l3.568-2.009c0,0-1.57-1.061-4.493-5.146
				c5,0.454,6.641,1.31,6.641,1.31L-503.837,203.622z"/>
			
				<radialGradient id="SVGID_31_" cx="-629.5249" cy="1108.53" r="9.2542" gradientTransform="matrix(1 0 0 1 117.7251 -902.8418)" gradientUnits="userSpaceOnUse">
				<stop  offset="0.1212" style="stop-color:#14152E"/>
				<stop  offset="0.3521" style="stop-color:#424562"/>
				<stop  offset="0.6585" style="stop-color:#7B80A0"/>
				<stop  offset="0.8831" style="stop-color:#9EA4C7"/>
				<stop  offset="1" style="stop-color:#ABB2D6"/>
			</radialGradient>
			<path fill="url(#SVGID_31_)" d="M-514.006,214.922c-0.228,0-0.454-0.059-0.656-0.179l-3.521-2.085
				c-0.393-0.229-0.634-0.65-0.643-1.104c-0.007-0.455,0.223-0.883,0.606-1.127l0,0c-0.001,0,0.775-0.537,2.222-2.286
				c-2.295,0.389-3.192,0.793-3.205,0.797c-0.408,0.188-0.891,0.154-1.267-0.088c-0.376-0.243-0.608-0.661-0.604-1.109l0.046-4.094
				c0.004-0.455,0.245-0.875,0.637-1.11c0.39-0.233,0.875-0.247,1.278-0.037l0,0c0.001,0,0.855,0.402,3.093,0.781
				c-1.485-1.793-2.283-2.37-2.294-2.377c-0.366-0.259-0.581-0.692-0.558-1.141c0.023-0.449,0.269-0.858,0.659-1.078l3.567-2.008
				c0.396-0.224,0.88-0.226,1.276-0.004c0.399,0.222,0.654,0.634,0.674,1.087l0,0c0.001,0,0.08,0.941,0.872,3.067
				c0.809-2.182,0.909-3.162,0.911-3.174c0.043-0.446,0.312-0.848,0.71-1.052c0.399-0.204,0.876-0.196,1.263,0.031l3.521,2.084
				c0.396,0.232,0.637,0.651,0.646,1.106c0.006,0.455-0.224,0.881-0.607,1.126l0,0c0.002,0-0.775,0.539-2.221,2.289
				c2.295-0.391,3.192-0.793,3.205-0.798c0.407-0.188,0.891-0.156,1.268,0.089c0.375,0.244,0.607,0.661,0.603,1.109l-0.046,4.093
				c-0.004,0.456-0.245,0.876-0.637,1.108c-0.391,0.233-0.875,0.246-1.277,0.036l0,0c0,0-0.854-0.4-3.092-0.777
				c1.484,1.792,2.281,2.367,2.293,2.377c0.367,0.259,0.58,0.69,0.558,1.141c-0.023,0.449-0.269,0.857-0.658,1.077l-3.567,2.009
				c-0.397,0.225-0.882,0.227-1.279,0.004s-0.653-0.633-0.673-1.089l0,0c0,0.002-0.08-0.94-0.87-3.063
				c-0.81,2.181-0.911,3.157-0.913,3.174c-0.041,0.444-0.312,0.848-0.709,1.051C-513.59,214.872-513.799,214.922-514.006,214.922
				L-514.006,214.922z"/>
		</g>
		<path fill="#FFFFFF" stroke="#FFFFFF" stroke-width="0.5613" stroke-miterlimit="10" d="M-503.837,203.954
			c0,0-1.701,0.831-6.702,1.317c2.895-4.104,4.454-5.098,4.454-5.098l-3.521-2.085c0,0-0.135,1.893-2.211,6.464
			c-2.104-4.556-2.188-6.404-2.188-6.404l-3.565,2.008c0,0,1.568,1.058,4.489,5.146c-5-0.454-6.64-1.312-6.64-1.312l-0.045,4.093
			c0,0,1.702-0.831,6.703-1.314c-2.894,4.103-4.455,5.096-4.455,5.096l3.522,2.085c0,0,0.133-1.891,2.209-6.46
			c2.104,4.553,2.188,6.403,2.188,6.403l3.568-2.011c0,0-1.57-1.057-4.493-5.145c5,0.453,6.641,1.31,6.641,1.31L-503.837,203.954z"
			/>
		<g>
			<polygon fill="#426BAC" points="-510.035,198.339 -509.898,197.506 -505.497,200.117 -506.132,200.656 			"/>
		</g>
		<g>
			<polygon fill="#426BAC" points="-517.527,200.601 -518.18,200.066 -513.718,197.559 -513.57,198.381 			"/>
		</g>
		<g>
			<polygon fill="#426BAC" points="-519.396,208.236 -520.188,208.533 -520.127,203.417 -519.341,203.698 			"/>
		</g>
		<g>
			<polygon fill="#426BAC" points="-513.606,213.723 -513.742,214.557 -518.144,211.946 -517.507,211.406 			"/>
		</g>
		<g>
			<polygon fill="#426BAC" points="-506.077,211.46 -505.425,211.997 -509.887,214.502 -510.035,213.682 			"/>
		</g>
		<g>
			<polygon fill="#426BAC" points="-504.206,203.76 -503.415,203.46 -503.475,208.577 -504.26,208.294 			"/>
		</g>
	</g>
	<g display="inline">
		
			<radialGradient id="SVGID_32_" cx="-621.2222" cy="1121.2781" r="8.9468" gradientTransform="matrix(1 0 0 1 117.7251 -902.8418)" gradientUnits="userSpaceOnUse">
			<stop  offset="0.2545" style="stop-color:#FFFFFF"/>
			<stop  offset="0.4164" style="stop-color:#FBFBFD"/>
			<stop  offset="0.5797" style="stop-color:#EFF0F7"/>
			<stop  offset="0.7436" style="stop-color:#DBDEED"/>
			<stop  offset="0.9072" style="stop-color:#BFC4E0"/>
			<stop  offset="1" style="stop-color:#ABB2D6"/>
		</radialGradient>
		<circle fill="url(#SVGID_32_)" cx="-503.497" cy="218.436" r="8.947"/>
		<g>
			
				<radialGradient id="SVGID_33_" cx="-621.2217" cy="1120.989" r="7.9465" gradientTransform="matrix(1 0 0 1 117.7251 -902.8418)" gradientUnits="userSpaceOnUse">
				<stop  offset="0.1212" style="stop-color:#808BBE"/>
				<stop  offset="0.1783" style="stop-color:#747CB4"/>
				<stop  offset="0.2712" style="stop-color:#676BA8"/>
				<stop  offset="0.3869" style="stop-color:#5E60A0"/>
				<stop  offset="0.5493" style="stop-color:#58599B"/>
				<stop  offset="1" style="stop-color:#57579A"/>
			</radialGradient>
			<path fill="url(#SVGID_33_)" d="M-495.534,216.084c0,0-1.698,0.83-6.7,1.316c2.895-4.104,4.453-5.095,4.453-5.095l-3.521-2.089
				c0,0-0.133,1.894-2.209,6.463c-2.105-4.555-2.188-6.402-2.188-6.402l-3.566,2.007c0,0,1.571,1.059,4.493,5.146
				c-5.001-0.455-6.642-1.312-6.642-1.312l-0.045,4.093c0,0,1.702-0.831,6.702-1.313c-2.895,4.102-4.455,5.094-4.455,5.094
				l3.523,2.086c0,0,0.133-1.891,2.209-6.461c2.104,4.554,2.188,6.403,2.188,6.403l3.566-2.006c0,0-1.57-1.061-4.492-5.146
				c5,0.454,6.644,1.312,6.644,1.312L-495.534,216.084z"/>
			
				<radialGradient id="SVGID_34_" cx="-621.2197" cy="1120.991" r="9.2549" gradientTransform="matrix(1 0 0 1 117.7251 -902.8418)" gradientUnits="userSpaceOnUse">
				<stop  offset="0.1212" style="stop-color:#14152E"/>
				<stop  offset="0.3521" style="stop-color:#424562"/>
				<stop  offset="0.6585" style="stop-color:#7B80A0"/>
				<stop  offset="0.8831" style="stop-color:#9EA4C7"/>
				<stop  offset="1" style="stop-color:#ABB2D6"/>
			</radialGradient>
			<path fill="url(#SVGID_34_)" d="M-505.702,227.385c-0.227,0-0.452-0.062-0.655-0.18l-3.522-2.085
				c-0.391-0.23-0.635-0.648-0.642-1.104c-0.008-0.457,0.222-0.885,0.606-1.127l0,0c-0.001,0,0.776-0.541,2.223-2.289
				c-2.295,0.391-3.193,0.792-3.205,0.799c-0.408,0.188-0.892,0.155-1.268-0.088c-0.376-0.245-0.608-0.662-0.604-1.11l0.044-4.094
				c0.006-0.455,0.247-0.876,0.637-1.11c0.392-0.231,0.875-0.247,1.279-0.037l0,0c0.002,0,0.856,0.402,3.093,0.78
				c-1.485-1.792-2.283-2.369-2.293-2.376c-0.367-0.26-0.58-0.693-0.557-1.141c0.021-0.449,0.268-0.859,0.658-1.078l3.567-2.01
				c0.398-0.223,0.881-0.225,1.279-0.003c0.397,0.221,0.651,0.633,0.672,1.086l0,0c0,0,0.08,0.943,0.873,3.067
				c0.809-2.181,0.908-3.16,0.91-3.174c0.043-0.447,0.311-0.849,0.711-1.053c0.397-0.204,0.875-0.195,1.262,0.031l3.521,2.087
				c0.394,0.23,0.638,0.648,0.644,1.104c0.008,0.455-0.221,0.882-0.605,1.126l0,0c0,0-0.774,0.541-2.221,2.289
				c2.295-0.39,3.191-0.792,3.205-0.798c0.406-0.188,0.889-0.157,1.266,0.088c0.375,0.243,0.607,0.661,0.604,1.109l-0.045,4.093
				c-0.004,0.456-0.246,0.876-0.638,1.109c-0.391,0.232-0.872,0.246-1.278,0.037l0,0c0,0-0.855-0.4-3.092-0.779
				c1.483,1.794,2.282,2.368,2.295,2.378c0.364,0.26,0.578,0.691,0.557,1.141c-0.023,0.448-0.268,0.857-0.66,1.078l-3.565,2.008
				c-0.396,0.223-0.882,0.228-1.279,0.003c-0.396-0.221-0.652-0.631-0.672-1.087l0,0c0,0-0.08-0.939-0.871-3.066
				c-0.81,2.182-0.91,3.16-0.912,3.174c-0.041,0.446-0.311,0.849-0.709,1.053C-505.286,227.334-505.493,227.385-505.702,227.385
				L-505.702,227.385z"/>
		</g>
		<path fill="#FFFFFF" stroke="#FFFFFF" stroke-width="0.5613" stroke-miterlimit="10" d="M-495.534,216.414
			c0,0-1.698,0.832-6.7,1.318c2.895-4.104,4.453-5.097,4.453-5.097l-3.521-2.087c0,0-0.133,1.893-2.209,6.463
			c-2.105-4.556-2.188-6.404-2.188-6.404l-3.566,2.008c0,0,1.571,1.058,4.493,5.146c-5.001-0.454-6.642-1.312-6.642-1.312
			l-0.045,4.093c0,0,1.702-0.831,6.702-1.314c-2.895,4.104-4.455,5.096-4.455,5.096l3.523,2.086c0,0,0.133-1.892,2.209-6.462
			c2.104,4.555,2.188,6.404,2.188,6.404l3.566-2.01c0,0-1.57-1.057-4.492-5.146c5,0.456,6.644,1.311,6.644,1.311L-495.534,216.414z"
			/>
		<g>
			<polygon fill="#426BAC" points="-501.731,210.802 -501.593,209.967 -497.192,212.577 -497.829,213.116 			"/>
		</g>
		<g>
			<polygon fill="#426BAC" points="-509.223,213.063 -509.876,212.527 -505.413,210.021 -505.264,210.842 			"/>
		</g>
		<g>
			<polygon fill="#426BAC" points="-511.093,220.697 -511.884,220.995 -511.823,215.878 -511.037,216.161 			"/>
		</g>
		<g>
			<polygon fill="#426BAC" points="-505.302,226.184 -505.438,227.019 -509.841,224.406 -509.202,223.867 			"/>
		</g>
		<g>
			<polygon fill="#426BAC" points="-497.774,223.922 -497.122,224.457 -501.583,226.964 -501.731,226.142 			"/>
		</g>
		<g>
			<polygon fill="#426BAC" points="-495.903,216.219 -495.11,215.92 -495.173,221.039 -495.958,220.756 			"/>
		</g>
	</g>
</g>
</svg>
