<?xml version="1.0" encoding="utf-8"?>
<!-- Generator: Adobe Illustrator 14.0.0, SVG Export Plug-In . SVG Version: 6.00 Build 43363)  -->
<!DOCTYPE svg PUBLIC "-//W3C//DTD SVG 1.1//EN" "http://www.w3.org/Graphics/SVG/1.1/DTD/svg11.dtd">
<svg version="1.1" id="Pilvi" xmlns="http://www.w3.org/2000/svg" xmlns:xlink="http://www.w3.org/1999/xlink" x="0px" y="0px"
	 width="59.529px" height="59.529px" viewBox="0 0 59.529 59.529" enable-background="new 0 0 59.529 59.529" xml:space="preserve">
<g>
	<g>
		<g>
			<g>
				<defs>
					<path id="SVGID_1_" d="M53.253,46.515c-0.344,0.414-20.393,0.639-20.771,0.066c-3.283-4.961-2.367-12.037,2.463-16.697
						c5.389-5.198,13.607-5.421,18.355-0.499C57.698,33.946,57.579,41.321,53.253,46.515z"/>
				</defs>
				<clipPath id="SVGID_2_">
					<use xlink:href="#SVGID_1_"  overflow="visible"/>
				</clipPath>
				<polygon clip-path="url(#SVGID_2_)" fill="#FFFFFF" points="55.666,24.463 57.698,29.029 57.698,31.738 29.198,44.427 
					29.198,24.463 				"/>
				<polygon clip-path="url(#SVGID_2_)" fill="#FFFFFF" points="57.698,33.567 29.198,46.256 29.198,44.427 57.698,31.738 				"/>
				<polygon clip-path="url(#SVGID_2_)" fill="#F0F6FB" points="57.698,35.396 31.291,47.153 29.473,47.153 29.198,46.537 
					29.198,46.256 57.698,33.567 				"/>
				<polygon clip-path="url(#SVGID_2_)" fill="#DEECF7" points="57.698,37.226 35.399,47.153 31.291,47.153 57.698,35.396 				"/>
				<polygon clip-path="url(#SVGID_2_)" fill="#CBE0F2" points="57.698,39.055 39.507,47.153 35.399,47.153 57.698,37.226 				"/>
				<polygon clip-path="url(#SVGID_2_)" fill="#B7D5ED" points="57.698,40.883 43.615,47.153 39.507,47.153 57.698,39.055 				"/>
				<polygon clip-path="url(#SVGID_2_)" fill="#A3C8E8" points="57.698,42.712 47.723,47.153 43.615,47.153 57.698,40.883 				"/>
				<polygon clip-path="url(#SVGID_2_)" fill="#8EBCE3" points="57.698,44.541 51.831,47.153 47.723,47.153 57.698,42.712 				"/>
				<polygon clip-path="url(#SVGID_2_)" fill="#8EBCE3" points="51.83,47.153 57.698,44.541 57.698,47.153 				"/>
			</g>
		</g>
		<g>
			<g>
				<defs>
					
						<ellipse id="SVGID_3_" transform="matrix(0.6942 0.7197 -0.7197 0.6942 32.3102 -21.1388)" cx="41.035" cy="27.459" rx="12.861" ry="13.556"/>
				</defs>
				<clipPath id="SVGID_4_">
					<use xlink:href="#SVGID_3_"  overflow="visible"/>
				</clipPath>
				<polygon clip-path="url(#SVGID_4_)" fill="#FFFFFF" points="39.502,12.936 27.351,40.227 26.347,39.779 26.347,12.936 				"/>
				<polygon clip-path="url(#SVGID_4_)" fill="#FFFFFF" points="41.52,12.936 29.034,40.977 27.351,40.227 39.502,12.936 				"/>
				<polygon clip-path="url(#SVGID_4_)" fill="#FEFFFF" points="43.536,12.936 30.718,41.726 29.034,40.977 41.52,12.936 				"/>
				<polygon clip-path="url(#SVGID_4_)" fill="#FCFDFE" points="45.554,12.936 32.621,41.981 31.292,41.981 30.718,41.726 
					43.536,12.936 				"/>
				<polygon clip-path="url(#SVGID_4_)" fill="#F8FBFD" points="47.571,12.936 34.639,41.981 32.621,41.981 45.554,12.936 				"/>
				<polygon clip-path="url(#SVGID_4_)" fill="#F2F7FC" points="49.589,12.936 36.656,41.981 34.639,41.981 47.571,12.936 				"/>
				<polygon clip-path="url(#SVGID_4_)" fill="#E9F2F9" points="50.776,12.936 51.469,13.244 38.674,41.981 36.656,41.981 
					49.589,12.936 				"/>
				<polygon clip-path="url(#SVGID_4_)" fill="#DDEBF7" points="51.469,13.244 53.152,13.993 40.69,41.981 38.674,41.981 				"/>
				<polygon clip-path="url(#SVGID_4_)" fill="#CEE2F3" points="53.152,13.993 54.836,14.743 42.708,41.981 40.69,41.981 				"/>
				<polygon clip-path="url(#SVGID_4_)" fill="#BCD7EE" points="54.836,14.743 55.722,15.137 55.722,17.284 44.726,41.981 
					42.708,41.981 				"/>
				<polygon clip-path="url(#SVGID_4_)" fill="#A7CBE9" points="55.722,21.813 46.742,41.981 44.726,41.981 55.722,17.284 				"/>
				<polygon clip-path="url(#SVGID_4_)" fill="#8EBCE3" points="55.722,26.344 48.76,41.981 46.742,41.981 55.722,21.813 				"/>
				<polygon clip-path="url(#SVGID_4_)" fill="#8EBCE3" points="48.76,41.981 55.722,26.344 55.722,41.981 				"/>
			</g>
		</g>
		<g>
			<g>
				<defs>
					
						<ellipse id="SVGID_5_" transform="matrix(0.6943 0.7197 -0.7197 0.6943 32.8263 -13.2784)" cx="32.042" cy="31.999" rx="12.383" ry="13.555"/>
				</defs>
				<clipPath id="SVGID_6_">
					<use xlink:href="#SVGID_5_"  overflow="visible"/>
				</clipPath>
				<polygon clip-path="url(#SVGID_6_)" fill="#FFFFFF" points="33.256,17.666 17.538,35.747 17.538,17.666 				"/>
				<polygon clip-path="url(#SVGID_6_)" fill="#FFFFFF" points="35.771,17.666 17.538,38.642 17.538,35.747 33.256,17.666 				"/>
				<polygon clip-path="url(#SVGID_6_)" fill="#FEFFFF" points="38.286,17.666 17.938,41.073 17.538,40.725 17.538,38.642 
					35.771,17.666 				"/>
				<polygon clip-path="url(#SVGID_6_)" fill="#FCFDFE" points="40.099,17.666 40.499,18.014 19.371,42.319 17.938,41.073 
					38.286,17.666 				"/>
				
					<rect x="29.702" y="14.687" transform="matrix(-0.7546 -0.6561 0.6561 -0.7546 33.5805 74.1353)" clip-path="url(#SVGID_6_)" fill="#F7FAFD" width="1.898" height="32.205"/>
				
					<rect x="31.135" y="15.932" transform="matrix(-0.755 -0.6557 0.6557 -0.755 35.3016 77.2589)" clip-path="url(#SVGID_6_)" fill="#F0F6FB" width="1.899" height="32.205"/>
				
					<rect x="32.568" y="17.177" transform="matrix(-0.7546 -0.6561 0.6561 -0.7546 36.9748 80.3865)" clip-path="url(#SVGID_6_)" fill="#E7F1F9" width="1.898" height="32.205"/>
				<polygon clip-path="url(#SVGID_6_)" fill="#DBEAF6" points="44.798,21.75 46.23,22.996 25.945,46.331 23.986,46.331 
					23.669,46.056 				"/>
				<polygon clip-path="url(#SVGID_6_)" fill="#CCE1F2" points="46.23,22.996 46.548,23.271 46.548,25.523 28.46,46.331 
					25.945,46.331 				"/>
				<polygon clip-path="url(#SVGID_6_)" fill="#BAD6EE" points="46.548,28.417 30.976,46.331 28.46,46.331 46.548,25.523 				"/>
				<polygon clip-path="url(#SVGID_6_)" fill="#A6CAE9" points="46.548,31.311 33.491,46.331 30.976,46.331 46.548,28.417 				"/>
				<polygon clip-path="url(#SVGID_6_)" fill="#8EBCE3" points="46.548,34.204 36.006,46.331 33.491,46.331 46.548,31.311 				"/>
				<polygon clip-path="url(#SVGID_6_)" fill="#8EBCE3" points="36.006,46.331 46.548,34.204 46.548,46.331 				"/>
			</g>
		</g>
		<g>
			<g>
				<defs>
					<path id="SVGID_7_" d="M31.806,46.419c-0.451,0.594-25.827,0.605-26.027,0.168c-0.398-0.873,2.598-3.088,3.127-3.889
						c5.574-8.42,7.709-17.166,16.005-16.292c2.468,0.261,4.743,1.524,6.542,3.387C35.71,34.208,35.733,41.261,31.806,46.419z"/>
				</defs>
				<clipPath id="SVGID_8_">
					<use xlink:href="#SVGID_7_"  overflow="visible"/>
				</clipPath>
				<polygon clip-path="url(#SVGID_8_)" fill="#FFFFFF" points="35.733,30.65 5.38,33.84 5.38,25.533 35.733,25.533 				"/>
				<polygon clip-path="url(#SVGID_8_)" fill="#FFFFFF" points="35.733,32.053 5.38,35.243 5.38,33.84 35.733,30.65 				"/>
				<polygon clip-path="url(#SVGID_8_)" fill="#FEFEFF" points="35.733,33.455 5.38,36.646 5.38,35.243 35.733,32.053 				"/>
				<polygon clip-path="url(#SVGID_8_)" fill="#FBFDFE" points="35.733,34.858 5.38,38.049 5.38,36.646 35.733,33.455 				"/>
				<polygon clip-path="url(#SVGID_8_)" fill="#F6FAFD" points="35.733,36.261 5.38,39.451 5.38,38.049 35.733,34.858 				"/>
				<polygon clip-path="url(#SVGID_8_)" fill="#EFF5FB" points="35.733,37.664 5.38,40.854 5.38,39.451 35.733,36.261 				"/>
				<polygon clip-path="url(#SVGID_8_)" fill="#E5F0F9" points="35.733,39.066 5.38,42.257 5.38,40.854 35.733,37.664 				"/>
				<polygon clip-path="url(#SVGID_8_)" fill="#D9E8F6" points="35.733,40.47 5.38,43.659 5.38,42.257 35.733,39.066 				"/>
				<polygon clip-path="url(#SVGID_8_)" fill="#CAE0F2" points="35.733,41.872 5.38,45.063 5.38,43.659 35.733,40.47 				"/>
				<polygon clip-path="url(#SVGID_8_)" fill="#B9D5EE" points="35.733,43.274 5.38,46.465 5.38,45.063 35.733,41.872 				"/>
				<polygon clip-path="url(#SVGID_8_)" fill="#A5C9E9" points="35.733,44.678 13.407,47.024 5.38,47.024 5.38,46.465 
					35.733,43.274 				"/>
				<polygon clip-path="url(#SVGID_8_)" fill="#8EBCE3" points="35.733,46.08 26.751,47.024 13.407,47.024 35.733,44.678 				"/>
				<polygon clip-path="url(#SVGID_8_)" fill="#8EBCE3" points="26.751,47.024 35.733,46.08 35.733,47.024 				"/>
			</g>
		</g>
	</g>
	<path fill="#005E97" d="M57.067,37.421c-0.232-2.904-1.342-5.502-3.016-7.506c0.012-0.032,0.021-0.071,0.027-0.12
		c1.342-9.373-2.967-14.471-9.588-16.167c-4.826-1.236-9.748,0.502-12.99,4.099c-4.938,0.35-9.429,3.651-11.383,8.589
		c-2.452,0.75-4.435,2.373-5.779,4.488c-0.002,0-0.534,0.959-0.882,1.662c-3.658,6.842-6.609,10.713-8.68,12.799
		c-0.482,0.486-2.62,2.32-2.62,2.32h51.206l0.271,0.002C56.005,45.024,57.384,41.37,57.067,37.421z M51.997,45.813H7.629
		c4.767-5.824,7.358-11.824,8.019-12.986c0.945-1.57,2.124-2.892,3.695-3.804c1.107-0.669,1.982-0.967,2.911-1.131
		c1.884-0.415,3.79-0.275,5.569,0.329c1.029,0.396,1.376,0.508,2.388,1.14c0.756,0.47,1.471,1.028,2.125,1.667l0.07-0.146
		c-0.672-0.918-1.447-1.729-2.295-2.418c-1.014-0.866-1.396-1.077-2.304-1.476c-1.504-0.735-3.139-1.13-4.799-1.119
		c1.368-2.875,3.809-5.138,6.96-6.095c1.064-0.321,1.77-0.42,3.068-0.48c4.557-0.058,8.885,2.71,11.014,7.108l0.152-0.195
		c-1.412-3.921-4.566-7.05-8.766-8.125c-0.316-0.082-0.633-0.144-0.949-0.2c1.152-0.938,2.494-1.656,3.998-2.078
		c6.246-1.753,12.664,2.143,14.541,8.832c0.393,1.401,0.455,3.238,0.395,4.615l-0.268,1.424c1.119,1.77,1.895,2.951,2.076,5.238
		C55.536,39.741,54.251,43.288,51.997,45.813z"/>
</g>
</svg>
