<?xml version="1.0" encoding="utf-8"?>
<!-- Generator: Adobe Illustrator 14.0.0, SVG Export Plug-In . SVG Version: 6.00 Build 43363)  -->
<!DOCTYPE svg PUBLIC "-//W3C//DTD SVG 1.1//EN" "http://www.w3.org/Graphics/SVG/1.1/DTD/svg11.dtd">
<svg version="1.1" id="Layer_1" xmlns="http://www.w3.org/2000/svg" xmlns:xlink="http://www.w3.org/1999/xlink" x="0px" y="0px"
	 width="59.529px" height="59.529px" viewBox="0 0 59.529 59.529" enable-background="new 0 0 59.529 59.529" xml:space="preserve">
<g>
	<circle fill="#0071BC" stroke="#00FFFF" stroke-width="0.7959" cx="19.759" cy="23.404" r="16.541"/>
	<linearGradient id="SVGID_1_" gradientUnits="userSpaceOnUse" x1="12.7197" y1="13.5066" x2="27.5405" y2="34.3456">
		<stop  offset="0" style="stop-color:#FFFFFF"/>
		<stop  offset="0.107" style="stop-color:#F9F9FC"/>
		<stop  offset="0.2481" style="stop-color:#E9E9F3"/>
		<stop  offset="0.4082" style="stop-color:#CDCEE5"/>
		<stop  offset="0.5824" style="stop-color:#A7A8D1"/>
		<stop  offset="0.768" style="stop-color:#7678B8"/>
		<stop  offset="0.9604" style="stop-color:#3B3E99"/>
		<stop  offset="1" style="stop-color:#2E3192"/>
	</linearGradient>
	<circle fill="url(#SVGID_1_)" stroke="#2E3192" stroke-width="0.9" cx="19.759" cy="23.404" r="14.692"/>
	<path fill="#B3B0D3" d="M8.952,16.363c0,1.1-0.014,1.488-0.972,1.99c-0.19,1.416,0.091,2.014,1.496,1.947
		c0.639-1.049-0.458-3.32,1.169-3.412c0.07-0.49,0.231-1.305,0.483-1.764c0.435-0.793,0.671-0.387,1.325-0.467
		c0.369-0.047,1.317-0.73,1.736-0.389c0.334,0.273,0.23,1.762,0.256,2.168c0.654,0.158,0.65,1.133,0.6,1.705
		c-0.147,0.346-0.318,0.186-0.508,0.211c-0.047,0.205-0.017,0.422,0.09,0.598c0.939,0.055,1.904-0.018,2.845,0.029
		c0.025,0.67-1.549,1.408-0.904,2.043c0.214-0.521,1.03-0.336,1.533-0.363c-0.083-0.713,0.785-1.369,1.444-1.26
		c-0.279-0.408-0.787-0.299-0.894-0.879c-0.091-0.498,0.521-0.723,0.348-1.338c-0.292-0.102-0.569-0.254-0.869-0.389
		c-0.053-0.9-0.741-0.666-0.002-2.754c0.165-0.471,0.421-0.066,0.58-0.029c-0.03-0.045-0.045-0.096-0.044-0.148
		c0.625,0.023,1.276-0.346,2.041-0.389c-0.021-0.15,0.058-0.363,0.027-0.512c0.179-0.008,0.445,0.072,0.603,0.182
		c0.015,0.084,0.009,0.156,0.028,0.238c0.534,0.313,1.236,0.275,1.857,0.389c0.029,0.51-0.064,1.732,0.346,2.078
		c0.453,0.381,1.524-0.111,2.075,0.234c0.073-0.496-0.274-0.984-0.58-1.342c0.375,0.006,0.754-0.002,1.123,0.018
		c0.271,1.221,0.69,0.68,1.617,0.988c0.026,0.535-0.291,1.85,0.538,1.678c0.024-0.463,0.004-0.945,0.027-1.408
		c0.615-0.098,1.448,0.074,2.072,0.166c0.933,0.135,0.925,0.545,0.982,1.512c0.827-0.004,0.93,1.813,0.96,2.426
		c-0.44,0.186-2.016-0.133-2.343-0.414c-0.615-0.525,0.093-1.309-1.041-1.475c-0.034-0.213-0.192-0.387-0.215-0.602
		c-0.259,0.25-0.198,0.613-0.43,0.887c-0.24,0.283-0.675,0.393-0.973,0.555c-0.431,1.186,0.366,0.727,1.061,1.064
		c0.654,0.318,0.531,1.275,1.514,1.27c0.201,0.561,0.29,1.746,0.195,2.322c-0.197,1.199-0.692,0.482-1.103-0.156
		c-0.298-0.463-0.876-1.424-1.415-1.467c-0.352-0.029-1.505,0.705-1.794,0.912c-0.398-0.396-0.164-1.568-0.193-2.15
		c-1.02-0.053-1.796,0.105-2.411-0.822c-0.552-0.832-0.017-1.758-0.193-2.682c-0.338-0.055-1.083-0.271-1.426-0.105
		c-0.494,0.24-0.298,0.623-0.602,1.016c-0.211,0.271-0.831,0.223-0.835,0.691c-0.006,0.615,0.714,0.453,1.153,0.467
		c0.187,0.271,0.265,0.607,0.18,0.957c-0.517,0.391-0.789-0.104-1.246,0.014c-0.364,0.094-0.627,0.424-0.878,0.646
		c-0.123,0.609-1.177,0.334-0.99,1.229c0.787-0.033,2.479,0.043,1.493,1.066c-0.707,0.734-1.696,0.463-2.39,0.01
		c-0.043-0.736,0.062-1.07-0.395-1.582c-0.373-0.42-0.929-0.531-1.505-0.471c-0.647,0.066-1.214,0.244-1.636,0.613
		c-0.601,0.525-0.437,0.646-0.416,1.439c0.374,0.135,0.428,0.521,0.357,0.9c0.932,0.199,0.638-0.443,1.128-0.643
		c0.517-0.209,0.959,0.156,1.448,0.313c0.097,0.705-0.493,0.318-0.773,0.631c-0.348,0.387-0.276,0.719-0.289,1.238
		c-0.014,0.535-0.081,0.9,0.356,1.17c0.335,0.207,1.03-0.48,0.917,0.432c0.669,0.211,2.027-0.09,2.246,0.719
		c0.115,0.012,0.214,0.008,0.33,0.002c0.213-0.768-1.242-1.531-0.53-2.059c0.328-0.242,2.06,0.328,2.414,0.471
		c0.217,1.049,1.073,1.982,0.824,3.129c-0.223,1.027-0.856,1.238-1.871,0.883c-0.313-0.91-1.01-0.383-1.724-0.521
		c-0.715-0.139-0.842-0.756-1.599-0.076c0.027,0.172-0.059,0.396-0.016,0.576c-0.001,0.002,0.003-0.016,0.004-0.014
		c-0.287,0.271-0.507,0.613-0.44,1.025c0.763-0.172,1.102,0.604,0.794,1.27c-0.294,0.639-0.965,0.477-1.69,0.434
		c-0.365-0.617-0.192-1.262-0.625-1.889c-0.337-0.49-0.802-0.988-1.113-1.582c-0.549,0.025-0.489,0.447-0.683,0.813
		c-0.329,0.615-0.012,0.604-0.809,0.898C11,31.918,10.868,31.81,9.962,30.978C9.639,30.681,9.35,30.34,9.069,30.08
		c-0.284-0.262-0.902-0.449-1.087-0.713c-0.262-0.377-0.019-3.045-1.279-1.764c-0.646-0.902-0.221-2.896-0.279-4.041
		c-0.105-0.002-0.226-0.029-0.33-0.029c-0.559-0.514-0.101-1.559,0.088-2.215c0.127,0.002,0.3-0.049,0.427-0.029
		c0.093-0.15,0.073-0.152,0.173-0.271c0.053-0.58-0.332-3.203,0.849-2.895c0.189-0.248,0.273-0.531,0.254-0.85
		c0.173,0.043,0.433-0.066,0.606-0.027c-0.04-0.172,0.066-0.428,0.027-0.602c0.144,0.025,0.297-0.096,0.346-0.102"/>
	<path fill="#C4C4E2" d="M29.25,14.836c-1.046,0.119-1.739-0.236-1.899-1.244c-0.517,0.086-0.912-0.25-0.959-0.717
		c0.466-0.42,1.813-0.592,2.307-0.271c0.003,0.139-0.059,0.592,0.014,0.705c0.035,0.055,0.471,0.467,0.455,0.422
		c0.124,0.346,0.108,1.07-0.007,1.195"/>
	<path fill="#E8E8FB" d="M9.081,15.595c0.234-0.541,0.116-1.131,0.493-1.697c0.214,0.041,0.514-0.074,0.728-0.033
		c0.268-0.35,0.223-0.754,0.591-0.943c0.108-0.055,1.412-0.021,1.604-0.006c0.147-1.004,0.834-1.283,1.535-1.795
		c0.411-0.301,0.391-0.4,0.973-0.551c0.471-0.121,1.042,0.156,1.137-0.48c0.758-0.256,2.104-0.443,2.921-0.287
		c0.554,0.086,0.399,0.615,0,0.828c-2.776,0.492-2.741-0.324-3.746,0.096c-0.355,0.148,0.131,0.721-0.233,0.875
		c-0.469,0.199-0.604,1.043-1.161,0.742c-0.623,0.006-0.681,0.6-1.102,0.898c-0.557,0.395-0.97-0.031-1.561-0.279
		c0.044,0.186-0.134,0.908-0.098,1.096c-1.548-0.061-1.174,0.838-1.238,2.094c-0.229,0.055-0.974,0.637-0.98-0.156"/>
</g>
<g id="Aurinko1" display="none">
	<g display="inline">
		
			<linearGradient id="SVGID_2_" gradientUnits="userSpaceOnUse" x1="-751.8589" y1="-662.3645" x2="-752.319" y2="-688.7238" gradientTransform="matrix(1 0 0 -1 235.4102 -476.0981)">
			<stop  offset="0.5455" style="stop-color:#FFE300"/>
			<stop  offset="0.7333" style="stop-color:#FEE102"/>
			<stop  offset="0.8297" style="stop-color:#FAD908"/>
			<stop  offset="0.9053" style="stop-color:#F4CC13"/>
			<stop  offset="0.9697" style="stop-color:#EBB922"/>
			<stop  offset="1" style="stop-color:#E5AD2B"/>
		</linearGradient>
		<circle fill="url(#SVGID_2_)" cx="-516.679" cy="199.446" r="13.182"/>
		
			<radialGradient id="SVGID_3_" cx="-784.7749" cy="-599.0916" r="10.7755" fx="-787.8727" fy="-599.0243" gradientTransform="matrix(1.0433 0 0 -1.1003 301.9532 -463.1671)" gradientUnits="userSpaceOnUse">
			<stop  offset="0.2061" style="stop-color:#FFFFFF"/>
			<stop  offset="0.6606" style="stop-color:#F8F2AA"/>
			<stop  offset="0.727" style="stop-color:#FAF083"/>
			<stop  offset="0.8134" style="stop-color:#FCEE57"/>
			<stop  offset="0.8908" style="stop-color:#FDEC37"/>
			<stop  offset="0.9557" style="stop-color:#FEEB23"/>
			<stop  offset="1" style="stop-color:#FEEB1C"/>
		</radialGradient>
		<ellipse fill="url(#SVGID_3_)" cx="-516.802" cy="196.763" rx="12.396" ry="10.499"/>
		<g>
			
				<linearGradient id="SVGID_4_" gradientUnits="userSpaceOnUse" x1="-1109.6807" y1="-903.1711" x2="-1104.6426" y2="-894.4449" gradientTransform="matrix(0.9239 -0.3827 -0.3827 -0.9239 156.1966 -1070.8615)">
				<stop  offset="0.2667" style="stop-color:#FFE300"/>
				<stop  offset="0.4224" style="stop-color:#FDDE03"/>
				<stop  offset="0.6137" style="stop-color:#F6CF0D"/>
				<stop  offset="0.8226" style="stop-color:#EAB61C"/>
				<stop  offset="1" style="stop-color:#DE9B2D"/>
			</linearGradient>
			<polygon fill="url(#SVGID_4_)" points="-519.512,186.351 -523.936,188.182 -525.648,177.794 			"/>
			
				<linearGradient id="SVGID_5_" gradientUnits="userSpaceOnUse" x1="-1951.4556" y1="-908.3513" x2="-1946.4174" y2="-899.6252" gradientTransform="matrix(0.3827 -0.9239 -0.9239 -0.3827 -621.7441 -1954.2949)">
				<stop  offset="0.2667" style="stop-color:#FFE300"/>
				<stop  offset="0.4224" style="stop-color:#FDDE03"/>
				<stop  offset="0.6137" style="stop-color:#F6CF0D"/>
				<stop  offset="0.8226" style="stop-color:#EAB61C"/>
				<stop  offset="1" style="stop-color:#DE9B2D"/>
			</linearGradient>
			<polygon fill="url(#SVGID_5_)" points="-527.942,192.19 -529.775,196.614 -538.331,190.478 			"/>
			
				<linearGradient id="SVGID_6_" gradientUnits="userSpaceOnUse" x1="-2550.6685" y1="-316.8943" x2="-2545.6304" y2="-308.1681" gradientTransform="matrix(-0.3827 -0.9239 -0.9239 0.3827 -1796.7889 -2029.126)">
				<stop  offset="0.2667" style="stop-color:#FFE300"/>
				<stop  offset="0.4224" style="stop-color:#FDDE03"/>
				<stop  offset="0.6137" style="stop-color:#F6CF0D"/>
				<stop  offset="0.8226" style="stop-color:#EAB61C"/>
				<stop  offset="1" style="stop-color:#DE9B2D"/>
			</linearGradient>
			<polygon fill="url(#SVGID_6_)" points="-529.775,202.279 -527.942,206.703 -538.331,208.415 			"/>
			
				<linearGradient id="SVGID_7_" gradientUnits="userSpaceOnUse" x1="-2555.8496" y1="525.1316" x2="-2550.8108" y2="533.8586" gradientTransform="matrix(-0.9239 -0.3827 -0.3827 0.9239 -2680.2263 -1251.1854)">
				<stop  offset="0.2667" style="stop-color:#FFE300"/>
				<stop  offset="0.4224" style="stop-color:#FDDE03"/>
				<stop  offset="0.6137" style="stop-color:#F6CF0D"/>
				<stop  offset="0.8226" style="stop-color:#EAB61C"/>
				<stop  offset="1" style="stop-color:#DE9B2D"/>
			</linearGradient>
			<polygon fill="url(#SVGID_7_)" points="-523.935,210.709 -519.512,212.54 -525.648,221.098 			"/>
			
				<linearGradient id="SVGID_8_" gradientUnits="userSpaceOnUse" x1="-1964.3936" y1="1124.0916" x2="-1959.354" y2="1132.8203" gradientTransform="matrix(-0.9239 0.3827 0.3827 0.9239 -2755.0569 -76.1381)">
				<stop  offset="0.2667" style="stop-color:#FFE300"/>
				<stop  offset="0.4224" style="stop-color:#FDDE03"/>
				<stop  offset="0.6137" style="stop-color:#F6CF0D"/>
				<stop  offset="0.8226" style="stop-color:#EAB61C"/>
				<stop  offset="1" style="stop-color:#DE9B2D"/>
			</linearGradient>
			<polygon fill="url(#SVGID_8_)" points="-513.846,212.539 -509.423,210.707 -507.71,221.098 			"/>
			
				<linearGradient id="SVGID_9_" gradientUnits="userSpaceOnUse" x1="-1122.3682" y1="1129.5251" x2="-1117.3296" y2="1138.2522" gradientTransform="matrix(-0.3827 0.9239 0.9239 0.3827 -1977.1163 807.2966)">
				<stop  offset="0.2667" style="stop-color:#FFE300"/>
				<stop  offset="0.4224" style="stop-color:#FDDE03"/>
				<stop  offset="0.6137" style="stop-color:#F6CF0D"/>
				<stop  offset="0.8226" style="stop-color:#EAB61C"/>
				<stop  offset="1" style="stop-color:#DE9B2D"/>
			</linearGradient>
			<polygon fill="url(#SVGID_9_)" points="-505.417,206.701 -503.585,202.279 -495.026,208.413 			"/>
			
				<linearGradient id="SVGID_10_" gradientUnits="userSpaceOnUse" x1="-523.4058" y1="537.8162" x2="-518.3668" y2="546.5441" gradientTransform="matrix(0.3827 0.9239 0.9239 -0.3827 -802.0685 882.1274)">
				<stop  offset="0.2667" style="stop-color:#FFE300"/>
				<stop  offset="0.4224" style="stop-color:#FDDE03"/>
				<stop  offset="0.6137" style="stop-color:#F6CF0D"/>
				<stop  offset="0.8226" style="stop-color:#EAB61C"/>
				<stop  offset="1" style="stop-color:#DE9B2D"/>
			</linearGradient>
			<polygon fill="url(#SVGID_10_)" points="-503.585,196.612 -505.417,192.189 -495.026,190.477 			"/>
			
				<linearGradient id="SVGID_11_" gradientUnits="userSpaceOnUse" x1="-517.9785" y1="-303.9568" x2="-512.9399" y2="-295.2297" gradientTransform="matrix(0.9239 0.3827 0.3827 -0.9239 81.3691 104.1888)">
				<stop  offset="0.2667" style="stop-color:#FFE300"/>
				<stop  offset="0.4224" style="stop-color:#FDDE03"/>
				<stop  offset="0.6137" style="stop-color:#F6CF0D"/>
				<stop  offset="0.8226" style="stop-color:#EAB61C"/>
				<stop  offset="1" style="stop-color:#DE9B2D"/>
			</linearGradient>
			<polygon fill="url(#SVGID_11_)" points="-509.424,188.182 -513.847,186.351 -507.712,177.793 			"/>
		</g>
		<g>
			<circle fill="none" stroke="#D68122" stroke-width="1.1227" cx="-516.679" cy="199.446" r="13.182"/>
			<polygon fill="#D4831D" points="-513.162,186.359 -520.197,186.359 -516.679,180.222 			"/>
			<polygon fill="#D4831D" points="-523.447,187.704 -528.421,192.678 -530.273,185.853 			"/>
			<polygon fill="#D4831D" points="-529.767,195.929 -529.767,202.963 -535.903,199.446 			"/>
			<polygon fill="#D4831D" points="-528.421,206.213 -523.447,211.187 -530.272,213.039 			"/>
			<polygon fill="#D4831D" points="-520.197,212.532 -513.162,212.532 -516.679,218.67 			"/>
			<polygon fill="#D4831D" points="-509.911,211.187 -504.938,206.213 -503.087,213.038 			"/>
			<polygon fill="#D4831D" points="-503.593,202.963 -503.593,195.929 -497.456,199.445 			"/>
			<polygon fill="#D4831D" points="-504.938,192.678 -509.911,187.704 -503.087,185.852 			"/>
		</g>
	</g>
</g>
<g id="Kuu_kesk" display="none">
	<g display="inline">
		<g>
			
				<circle fill="#47ABD2" stroke="#B4D8E3" stroke-width="0.4116" stroke-miterlimit="10" stroke-dasharray="1.6466,0.4116" cx="-515.192" cy="205.208" r="16.852"/>
			<g>
				
					<circle fill="#278FCD" stroke="#54B1E4" stroke-width="0.6998" stroke-miterlimit="10" stroke-dasharray="1.6466,0.4116" cx="-515.194" cy="205.208" r="15.566"/>
				<g>
					
						<radialGradient id="SVGID_12_" cx="-755.4023" cy="-671.8347" r="9.7605" gradientTransform="matrix(1 0 0 -1 235.4102 -476.0981)" gradientUnits="userSpaceOnUse">
						<stop  offset="0.4606" style="stop-color:#FFF5BC"/>
						<stop  offset="0.5457" style="stop-color:#FFF3A4"/>
						<stop  offset="0.7252" style="stop-color:#FFED67"/>
						<stop  offset="0.9828" style="stop-color:#FFE407"/>
						<stop  offset="1" style="stop-color:#FFE300"/>
					</radialGradient>
					<path fill="url(#SVGID_12_)" stroke="#FFFFFF" stroke-width="0.6175" stroke-linejoin="bevel" stroke-miterlimit="10" d="
						M-512.522,196.302c4.175,0,7.91,1.865,10.428,4.81c-1.744-5.575-6.949-9.622-13.099-9.622c-7.579,0-13.724,6.143-13.724,13.722
						c0,3.404,1.242,6.518,3.295,8.915c-0.404-1.296-0.624-2.672-0.624-4.101C-526.243,202.444-520.101,196.302-512.522,196.302z"/>
				</g>
				
					<linearGradient id="SVGID_13_" gradientUnits="userSpaceOnUse" x1="-757.1001" y1="-675.8787" x2="-741.4355" y2="-691.543" gradientTransform="matrix(1 0 0 -1 235.4102 -476.0981)">
					<stop  offset="0" style="stop-color:#E8DE20"/>
					<stop  offset="0.1897" style="stop-color:#E6D11E"/>
					<stop  offset="0.7061" style="stop-color:#E2B419"/>
					<stop  offset="1" style="stop-color:#E0A917"/>
				</linearGradient>
				<path fill="url(#SVGID_13_)" stroke="#F0E764" stroke-width="0.4116" stroke-miterlimit="10" d="M-515.193,218.929
					c7.579,0,13.722-6.146,13.722-13.724c0-1.428-0.219-2.805-0.623-4.1c-2.518-2.942-6.253-4.811-10.428-4.811
					c-7.579,0-13.723,6.146-13.723,13.724c0,1.429,0.22,2.805,0.624,4.101C-523.104,217.064-519.367,218.929-515.193,218.929z"/>
				<path fill="#DEB518" d="M-511.934,209.503c-0.021,0.478,0.321,0.829,0.813,0.754c0.008-0.054,0.016-0.111,0.016-0.167
					c0.398-0.021,0.714,0.383,1.033-0.005c0.214-0.257-0.113-0.354,0.366-0.398c0.438-0.041,0.485,0.271,0.626-0.188
					c0.063-0.195-0.079-0.449,0.058-0.623c0.134-0.174,0.363-0.089,0.483-0.233c0.263-0.314-0.025-0.855-0.396-0.896
					c-0.099,0.241-0.267,0.399-0.365,0.612c-0.254-0.647-0.67,0.115-0.646,0.462c-0.06-0.031-0.205-0.14-0.256-0.188
					c-0.021-0.416,0.032-0.559-0.242-0.805c-0.192-0.172-0.484-0.328-0.749-0.266c-0.124,0.179-0.102,0.393-0.105,0.619
					c-0.625,0.033-0.729,0.18-0.489,0.762c0-0.038,0.009-0.084,0-0.122"/>
				<path fill="#DEB518" d="M-521.966,209.405c-0.536,0.196-0.771,0.736-0.463,1.249c0.062-0.021,0.134-0.038,0.191-0.063
					c0.211,0.437-0.094,0.968,0.479,1.146c0.383,0.12,0.341-0.288,0.614,0.225c0.247,0.466-0.077,0.661,0.495,0.606
					c0.247-0.022,0.462-0.294,0.717-0.227c0.254,0.068,0.267,0.364,0.483,0.435c0.47,0.143,0.937-0.424,0.813-0.854
					c-0.313,0.003-0.565-0.107-0.847-0.125c0.601-0.574-0.438-0.688-0.811-0.503c0.008-0.079,0.062-0.293,0.089-0.366
					c0.451-0.219,0.635-0.222,0.781-0.642c0.104-0.291,0.141-0.688-0.049-0.953c-0.256-0.055-0.481,0.07-0.737,0.168
					c-0.325-0.676-0.533-0.729-1.066-0.19c0.042-0.021,0.097-0.031,0.135-0.06"/>
				<path fill="#E4C312" d="M-522.339,205.573c-0.02,0.476,0.32,0.829,0.814,0.755c0.005-0.055,0.014-0.115,0.014-0.167
					c0.4-0.021,0.713,0.379,1.033-0.005c0.214-0.257-0.113-0.354,0.368-0.402c0.437-0.041,0.483,0.271,0.625-0.187
					c0.06-0.197-0.079-0.449,0.056-0.623c0.134-0.174,0.365-0.089,0.486-0.236c0.26-0.313-0.027-0.854-0.398-0.896
					c-0.097,0.241-0.266,0.397-0.366,0.609c-0.254-0.646-0.669,0.116-0.646,0.465c-0.06-0.031-0.206-0.142-0.253-0.188
					c-0.024-0.417,0.032-0.559-0.245-0.806c-0.192-0.171-0.485-0.328-0.749-0.269c-0.124,0.182-0.1,0.395-0.106,0.62
					c-0.625,0.035-0.729,0.18-0.488,0.761c0-0.036,0.008-0.084,0-0.119"/>
				<path fill="#DEB518" d="M-512.249,213.516c0.459-0.482,0.425-1.172-0.168-1.552c-0.053,0.056-0.117,0.107-0.166,0.164
					c-0.444-0.344-0.406-1.059-1.1-0.944c-0.463,0.071-0.205,0.479-0.758,0.086c-0.502-0.361-0.268-0.735-0.837-0.38
					c-0.244,0.148-0.33,0.547-0.635,0.604c-0.302,0.063-0.469-0.242-0.73-0.199c-0.564,0.097-0.761,0.935-0.404,1.316
					c0.325-0.165,0.649-0.177,0.952-0.309c-0.329,0.92,0.815,0.489,1.109,0.104c0.032,0.088,0.091,0.339,0.098,0.432
					c-0.357,0.466-0.548,0.563-0.483,1.078c0.046,0.359,0.208,0.795,0.549,0.975c0.297-0.075,0.465-0.321,0.684-0.561
					c0.693,0.539,0.938,0.484,1.221-0.353c-0.033,0.04-0.087,0.083-0.111,0.128"/>
				<path fill="#E1BD15" d="M-513.021,197.944c-0.626-0.229-1.245,0.077-1.354,0.77c0.069,0.028,0.146,0.065,0.22,0.091
					c-0.142,0.546-0.813,0.793-0.434,1.386c0.253,0.395,0.521-0.002,0.38,0.661c-0.131,0.604-0.566,0.533-0.016,0.918
					c0.236,0.164,0.634,0.084,0.81,0.339c0.179,0.253-0.036,0.524,0.108,0.751c0.312,0.479,1.158,0.327,1.369-0.154
					c-0.281-0.229-0.42-0.521-0.662-0.75c0.975-0.063,0.127-0.942-0.344-1.06c0.063-0.065,0.271-0.221,0.354-0.264
					c0.567,0.146,0.734,0.279,1.182,0.017c0.313-0.187,0.646-0.507,0.674-0.892c-0.188-0.239-0.479-0.299-0.783-0.401
					c0.219-0.854,0.072-1.055-0.811-0.98c0.053,0.02,0.11,0.047,0.162,0.055"/>
				<path fill="#E0BC16" d="M-518.106,208.914c-0.025,0.607,0.41,1.063,1.043,0.966c0.005-0.068,0.93,0.271,1.34-0.222
					c0.274-0.328-0.146-0.453,0.47-0.514c0.563-0.056,0.623,0.347,0.803-0.241c0.077-0.249-0.103-0.573,0.07-0.796
					c0.172-0.226,0.469-0.113,0.623-0.303c0.332-0.402,0.424-2.847-0.59-2.399c-0.201-0.385-1.5,0.439-1.854,0.124
					c-0.244-0.22-0.916,0.435-0.959,0.895c-0.157,0.229-0.623,0.034-0.63,0.327C-518.591,206.797-518.687,208.725-518.106,208.914z"
					/>
				<path fill="#DDB918" d="M-505.159,205.05c0.359,0.658,1.551,0.64,1.209-0.257c0.768-0.563,0.891-1.541,0.15-2.217
					c-0.088,0.063-0.193,0.123-0.277,0.188c-0.539-0.596-0.307-1.588-1.308-1.604c-0.669-0.012-0.409,0.622-1.087-0.07
					c-0.615-0.631-0.189-1.098-1.08-0.738c-0.381,0.15-0.601,0.688-1.041,0.694c-0.441,0.011-0.598-0.459-0.979-0.463
					c-0.816-0.008-1.301,1.117-0.896,1.749c0.498-0.147,0.957-0.088,1.414-0.196c-0.689,1.21,1.023,0.896,1.531,0.426
					c0.025,0.129,0.045,0.497,0.029,0.628c-0.617,0.563-0.908,0.654-0.945,1.394c-0.025,0.521,0.096,1.169,0.525,1.503
					c0.438-0.028,0.734-0.337,1.102-0.613c0.84,0.93,1.193,0.912,1.805-0.192c-0.061,0.048-0.146,0.095-0.189,0.153"/>
				<path fill="#DDB918" d="M-514.202,204.998c0.358,0.659,1.551,0.64,1.209-0.257c0.767-0.564,0.891-1.541,0.15-2.217
					c-0.089,0.06-0.193,0.123-0.277,0.188c-0.539-0.593-0.307-1.587-1.307-1.603c-0.67-0.012-0.41,0.622-1.088-0.07
					c-0.615-0.63-0.189-1.097-1.08-0.741c-0.381,0.153-0.601,0.688-1.042,0.697c-0.44,0.008-0.598-0.459-0.979-0.463
					c-0.814-0.008-1.299,1.117-0.896,1.749c0.499-0.15,0.957-0.088,1.414-0.198c-0.69,1.209,1.021,0.896,1.531,0.427
					c0.025,0.131,0.045,0.496,0.028,0.63c-0.617,0.562-0.908,0.652-0.944,1.394c-0.026,0.519,0.095,1.169,0.525,1.503
					c0.437-0.032,0.735-0.337,1.101-0.616c0.84,0.934,1.193,0.914,1.804-0.189c-0.06,0.048-0.144,0.094-0.19,0.15"/>
			</g>
			<path fill="#E3C803" d="M-525.776,213.785c-0.339,0-0.813-1.258-0.851-1.597c-0.058-0.525-0.086-1.059-0.086-1.583
				c0-7.961,6.478-14.438,14.437-14.438c3.411,0,6.65,1.185,9.242,3.353c0.297,0.248,1.146,1.51,0.871,1.792
				c-0.275,0.283-0.729,0.287-1.012,0.01c-2.445-2.399-5.679-3.721-9.104-3.721c-7.171,0-13.005,5.835-13.005,13.008
				c0,0.781,0.069,1.565,0.21,2.336c0.068,0.389-0.188,0.761-0.576,0.832C-525.691,213.781-525.734,213.785-525.776,213.785
				L-525.776,213.785z"/>
		</g>
		
			<circle fill="none" stroke="#C0DEE8" stroke-width="0.4281" stroke-miterlimit="10" stroke-dasharray="1.6136,0.8233" cx="-515.194" cy="205.208" r="17.525"/>
		
			<circle fill="none" stroke="#CEE5ED" stroke-width="0.8233" stroke-miterlimit="10" stroke-dasharray="2.4205,0.8068" cx="-515.194" cy="205.208" r="18.598"/>
	</g>
</g>
<g id="Aurinko_x5F_kesk" display="none">
	<g display="inline">
		
			<linearGradient id="SVGID_14_" gradientUnits="userSpaceOnUse" x1="-744.0005" y1="-669.8474" x2="-744.4606" y2="-696.2091" gradientTransform="matrix(1 0 0 -1 235.4102 -476.0981)">
			<stop  offset="0.5455" style="stop-color:#FFE300"/>
			<stop  offset="0.7333" style="stop-color:#FEE102"/>
			<stop  offset="0.8297" style="stop-color:#FAD908"/>
			<stop  offset="0.9053" style="stop-color:#F4CC13"/>
			<stop  offset="0.9697" style="stop-color:#EBB922"/>
			<stop  offset="1" style="stop-color:#E5AD2B"/>
		</linearGradient>
		<circle fill="url(#SVGID_14_)" cx="-508.82" cy="206.93" r="13.183"/>
		
			<radialGradient id="SVGID_15_" cx="-777.2417" cy="-605.8914" r="10.7753" fx="-780.3395" fy="-605.824" gradientTransform="matrix(1.0433 0 0 -1.1003 301.9532 -463.1671)" gradientUnits="userSpaceOnUse">
			<stop  offset="0.2061" style="stop-color:#FFFFFF"/>
			<stop  offset="0.6606" style="stop-color:#F8F2AA"/>
			<stop  offset="0.727" style="stop-color:#FAF083"/>
			<stop  offset="0.8134" style="stop-color:#FCEE57"/>
			<stop  offset="0.8908" style="stop-color:#FDEC37"/>
			<stop  offset="0.9557" style="stop-color:#FEEB23"/>
			<stop  offset="1" style="stop-color:#FEEB1C"/>
		</radialGradient>
		<path fill="url(#SVGID_15_)" d="M-496.546,204.247c0,5.799-5.553,10.499-12.396,10.499c-6.849,0-12.397-4.699-12.397-10.499
			c0-5.798,5.551-10.499,12.397-10.499C-502.098,193.748-496.546,198.449-496.546,204.247z"/>
		<g>
			
				<linearGradient id="SVGID_16_" gradientUnits="userSpaceOnUse" x1="-1105.2847" y1="-913.0935" x2="-1100.2466" y2="-904.3673" gradientTransform="matrix(0.9239 -0.3827 -0.3827 -0.9239 156.1966 -1070.8615)">
				<stop  offset="0.2667" style="stop-color:#FFE300"/>
				<stop  offset="0.4224" style="stop-color:#FDDE03"/>
				<stop  offset="0.6137" style="stop-color:#F6CF0D"/>
				<stop  offset="0.8226" style="stop-color:#EAB61C"/>
				<stop  offset="1" style="stop-color:#DE9B2D"/>
			</linearGradient>
			<polygon fill="url(#SVGID_16_)" points="-511.653,193.835 -516.077,195.668 -517.79,185.279 			"/>
			
				<linearGradient id="SVGID_17_" gradientUnits="userSpaceOnUse" x1="-1955.3623" y1="-918.4749" x2="-1950.3242" y2="-909.7487" gradientTransform="matrix(0.3827 -0.9239 -0.9239 -0.3827 -621.7441 -1954.2949)">
				<stop  offset="0.2667" style="stop-color:#FFE300"/>
				<stop  offset="0.4224" style="stop-color:#FDDE03"/>
				<stop  offset="0.6137" style="stop-color:#F6CF0D"/>
				<stop  offset="0.8226" style="stop-color:#EAB61C"/>
				<stop  offset="1" style="stop-color:#DE9B2D"/>
			</linearGradient>
			<polygon fill="url(#SVGID_17_)" points="-520.084,199.674 -521.916,204.097 -530.472,197.963 			"/>
			
				<linearGradient id="SVGID_18_" gradientUnits="userSpaceOnUse" x1="-2560.5913" y1="-321.2893" x2="-2555.5532" y2="-312.563" gradientTransform="matrix(-0.3827 -0.9239 -0.9239 0.3827 -1796.7889 -2029.126)">
				<stop  offset="0.2667" style="stop-color:#FFE300"/>
				<stop  offset="0.4224" style="stop-color:#FDDE03"/>
				<stop  offset="0.6137" style="stop-color:#F6CF0D"/>
				<stop  offset="0.8226" style="stop-color:#EAB61C"/>
				<stop  offset="1" style="stop-color:#DE9B2D"/>
			</linearGradient>
			<polygon fill="url(#SVGID_18_)" points="-521.916,209.764 -520.084,214.188 -530.472,215.901 			"/>
			
				<linearGradient id="SVGID_19_" gradientUnits="userSpaceOnUse" x1="-2565.9741" y1="529.0388" x2="-2560.936" y2="537.765" gradientTransform="matrix(-0.9239 -0.3827 -0.3827 0.9239 -2680.2263 -1251.1854)">
				<stop  offset="0.2667" style="stop-color:#FFE300"/>
				<stop  offset="0.4224" style="stop-color:#FDDE03"/>
				<stop  offset="0.6137" style="stop-color:#F6CF0D"/>
				<stop  offset="0.8226" style="stop-color:#EAB61C"/>
				<stop  offset="1" style="stop-color:#DE9B2D"/>
			</linearGradient>
			<polygon fill="url(#SVGID_19_)" points="-516.076,218.194 -511.653,220.026 -517.789,228.582 			"/>
			
				<linearGradient id="SVGID_20_" gradientUnits="userSpaceOnUse" x1="-1968.7891" y1="1134.0134" x2="-1963.7511" y2="1142.7397" gradientTransform="matrix(-0.9239 0.3827 0.3827 0.9239 -2755.0569 -76.1381)">
				<stop  offset="0.2667" style="stop-color:#FFE300"/>
				<stop  offset="0.4224" style="stop-color:#FDDE03"/>
				<stop  offset="0.6137" style="stop-color:#F6CF0D"/>
				<stop  offset="0.8226" style="stop-color:#EAB61C"/>
				<stop  offset="1" style="stop-color:#DE9B2D"/>
			</linearGradient>
			<polygon fill="url(#SVGID_20_)" points="-505.987,220.025 -501.565,218.193 -499.852,228.582 			"/>
			
				<linearGradient id="SVGID_21_" gradientUnits="userSpaceOnUse" x1="-1118.46" y1="1139.6501" x2="-1113.4224" y2="1148.3755" gradientTransform="matrix(-0.3827 0.9239 0.9239 0.3827 -1977.1163 807.2966)">
				<stop  offset="0.2667" style="stop-color:#FFE300"/>
				<stop  offset="0.4224" style="stop-color:#FDDE03"/>
				<stop  offset="0.6137" style="stop-color:#F6CF0D"/>
				<stop  offset="0.8226" style="stop-color:#EAB61C"/>
				<stop  offset="1" style="stop-color:#DE9B2D"/>
			</linearGradient>
			<polygon fill="url(#SVGID_21_)" points="-497.557,214.185 -495.725,209.763 -487.169,215.898 			"/>
			
				<linearGradient id="SVGID_22_" gradientUnits="userSpaceOnUse" x1="-513.4844" y1="542.2126" x2="-508.4468" y2="550.938" gradientTransform="matrix(0.3827 0.9239 0.9239 -0.3827 -802.0685 882.1274)">
				<stop  offset="0.2667" style="stop-color:#FFE300"/>
				<stop  offset="0.4224" style="stop-color:#FDDE03"/>
				<stop  offset="0.6137" style="stop-color:#F6CF0D"/>
				<stop  offset="0.8226" style="stop-color:#EAB61C"/>
				<stop  offset="1" style="stop-color:#DE9B2D"/>
			</linearGradient>
			<polygon fill="url(#SVGID_22_)" points="-495.725,204.096 -497.557,199.673 -487.169,197.961 			"/>
			
				<linearGradient id="SVGID_23_" gradientUnits="userSpaceOnUse" x1="-507.8535" y1="-307.864" x2="-502.8148" y2="-299.137" gradientTransform="matrix(0.9239 0.3827 0.3827 -0.9239 81.3691 104.1888)">
				<stop  offset="0.2667" style="stop-color:#FFE300"/>
				<stop  offset="0.4224" style="stop-color:#FDDE03"/>
				<stop  offset="0.6137" style="stop-color:#F6CF0D"/>
				<stop  offset="0.8226" style="stop-color:#EAB61C"/>
				<stop  offset="1" style="stop-color:#DE9B2D"/>
			</linearGradient>
			<polygon fill="url(#SVGID_23_)" points="-501.565,195.667 -505.989,193.835 -499.852,185.278 			"/>
		</g>
		<g>
			<circle fill="none" stroke="#D68122" stroke-width="1.1227" cx="-508.82" cy="206.93" r="13.183"/>
			<polygon fill="#D4831D" points="-505.303,193.844 -512.338,193.844 -508.82,187.707 			"/>
			<polygon fill="#D4831D" points="-515.588,195.189 -520.562,200.163 -522.415,193.337 			"/>
			<polygon fill="#D4831D" points="-521.908,203.414 -521.908,210.448 -528.045,206.931 			"/>
			<polygon fill="#D4831D" points="-520.562,213.697 -515.588,218.671 -522.414,220.525 			"/>
			<polygon fill="#D4831D" points="-512.338,220.018 -505.303,220.018 -508.82,226.154 			"/>
			<polygon fill="#D4831D" points="-502.053,218.671 -497.079,213.697 -495.227,220.524 			"/>
			<polygon fill="#D4831D" points="-495.733,210.448 -495.733,203.413 -489.596,206.929 			"/>
			<polygon fill="#D4831D" points="-497.079,200.163 -502.053,195.189 -495.227,193.337 			"/>
		</g>
	</g>
</g>
<g id="Pilvi">
	<g>
		<g>
			
				<linearGradient id="SVGID_24_" gradientUnits="userSpaceOnUse" x1="-195.5591" y1="-504.4758" x2="-185.9865" y2="-525.976" gradientTransform="matrix(1 0 0 -1 235.4102 -476.0981)">
				<stop  offset="0.503" style="stop-color:#FFFFFF"/>
				<stop  offset="0.6228" style="stop-color:#E8F2F9"/>
				<stop  offset="0.8724" style="stop-color:#AECFEB"/>
				<stop  offset="1" style="stop-color:#8EBCE3"/>
			</linearGradient>
			<path fill="url(#SVGID_24_)" d="M54.657,47.542c-0.344,0.414-20.393,0.641-20.771,0.066c-3.283-4.961-2.367-12.037,2.463-16.697
				c5.389-5.198,13.606-5.42,18.354-0.498C59.102,34.973,58.983,42.348,54.657,47.542z"/>
			
				<linearGradient id="SVGID_25_" gradientUnits="userSpaceOnUse" x1="-204.8159" y1="-499.3113" x2="-181.127" y2="-509.8582" gradientTransform="matrix(1 0 0 -1 235.4102 -476.0981)">
				<stop  offset="0.2182" style="stop-color:#FFFFFF"/>
				<stop  offset="0.3912" style="stop-color:#FCFDFE"/>
				<stop  offset="0.5346" style="stop-color:#F1F7FC"/>
				<stop  offset="0.6674" style="stop-color:#E0EDF7"/>
				<stop  offset="0.7938" style="stop-color:#C8DEF1"/>
				<stop  offset="0.9145" style="stop-color:#A9CCEA"/>
				<stop  offset="1" style="stop-color:#8EBCE3"/>
			</linearGradient>
			<path fill="url(#SVGID_25_)" d="M51.368,37.743c-5.389,5.197-13.754,5.266-18.686,0.154c-4.932-5.113-4.561-13.47,0.826-18.667
				c5.391-5.197,13.756-5.269,18.686-0.154C57.127,24.187,56.758,32.544,51.368,37.743z"/>
			
				<linearGradient id="SVGID_26_" gradientUnits="userSpaceOnUse" x1="-211.3164" y1="-500.9919" x2="-192.6084" y2="-517.2547" gradientTransform="matrix(1 0 0 -1 235.4102 -476.0981)">
				<stop  offset="0.1576" style="stop-color:#FFFFFF"/>
				<stop  offset="0.3353" style="stop-color:#FCFDFE"/>
				<stop  offset="0.4908" style="stop-color:#F1F7FB"/>
				<stop  offset="0.638" style="stop-color:#DFECF7"/>
				<stop  offset="0.78" style="stop-color:#C6DDF1"/>
				<stop  offset="0.9172" style="stop-color:#A5CAE9"/>
				<stop  offset="1" style="stop-color:#8EBCE3"/>
			</linearGradient>
			<path fill="url(#SVGID_26_)" d="M42.045,41.938c-5.389,5.199-13.604,5.42-18.354,0.498s-4.229-13.125,1.158-18.323
				c5.386-5.198,13.604-5.42,18.353-0.499C47.952,28.537,47.433,36.741,42.045,41.938z"/>
			
				<linearGradient id="SVGID_27_" gradientUnits="userSpaceOnUse" x1="-215.3677" y1="-503.9607" x2="-213.1804" y2="-524.7723" gradientTransform="matrix(1 0 0 -1 235.4102 -476.0981)">
				<stop  offset="0.2667" style="stop-color:#FFFFFF"/>
				<stop  offset="0.4131" style="stop-color:#FBFDFE"/>
				<stop  offset="0.5496" style="stop-color:#F0F6FB"/>
				<stop  offset="0.6822" style="stop-color:#DDEBF7"/>
				<stop  offset="0.8125" style="stop-color:#C3DBF0"/>
				<stop  offset="0.9398" style="stop-color:#A1C7E8"/>
				<stop  offset="1" style="stop-color:#8EBCE3"/>
			</linearGradient>
			<path fill="url(#SVGID_27_)" d="M33.211,47.446C32.76,48.04,7.384,48.052,7.183,47.614c-0.398-0.873,2.598-3.088,3.127-3.889
				c5.573-8.42,7.709-17.167,16.005-16.292c2.468,0.262,4.743,1.522,6.542,3.388C37.114,35.235,37.138,42.288,33.211,47.446z"/>
		</g>
		<path fill="#005E97" d="M58.472,38.448c-0.231-2.904-1.343-5.502-3.017-7.506c0.012-0.031,0.021-0.07,0.025-0.119
			c1.342-9.374-2.967-14.472-9.588-16.167c-4.826-1.236-9.748,0.502-12.99,4.099c-4.938,0.352-9.429,3.651-11.383,8.591
			c-2.452,0.75-4.436,2.371-5.779,4.486c-0.002,0-0.533,0.959-0.882,1.662c-3.658,6.842-6.608,10.713-8.68,12.799
			c-0.482,0.486-2.62,2.32-2.62,2.32h51.206l0.271,0.002C57.409,46.052,58.79,42.397,58.472,38.448z M53.401,46.841H9.033
			c4.768-5.822,7.358-11.822,8.021-12.984c0.944-1.57,2.124-2.895,3.694-3.805c1.106-0.67,1.981-0.968,2.91-1.132
			c1.885-0.415,3.79-0.273,5.569,0.329c1.028,0.396,1.376,0.508,2.389,1.141c0.756,0.471,1.471,1.027,2.125,1.668l0.069-0.146
			c-0.672-0.918-1.447-1.729-2.295-2.417c-1.015-0.866-1.396-1.077-2.305-1.477c-1.504-0.734-3.14-1.13-4.799-1.119
			c1.367-2.875,3.81-5.14,6.96-6.095c1.063-0.321,1.771-0.422,3.066-0.479c4.559-0.059,8.885,2.71,11.016,7.107l0.15-0.194
			c-1.412-3.922-4.564-7.051-8.768-8.125c-0.314-0.082-0.633-0.146-0.947-0.2c1.15-0.938,2.492-1.656,3.998-2.078
			c6.244-1.753,12.664,2.145,14.541,8.832c0.393,1.4,0.453,3.238,0.395,4.615l-0.268,1.424c1.117,1.771,1.896,2.951,2.074,5.238
			C56.94,40.768,55.655,44.315,53.401,46.841z"/>
	</g>
</g>
<g id="Pilvi_pikku" display="none">
	<g display="inline">
		<g>
			
				<linearGradient id="SVGID_28_" gradientUnits="userSpaceOnUse" x1="-729.7998" y1="-688.0525" x2="-722.6443" y2="-704.1241" gradientTransform="matrix(1 0 0 -1 235.4102 -476.0981)">
				<stop  offset="0.503" style="stop-color:#FFFFFF"/>
				<stop  offset="0.6238" style="stop-color:#E8F2FA"/>
				<stop  offset="0.8753" style="stop-color:#AED0EC"/>
				<stop  offset="1" style="stop-color:#8FBEE4"/>
			</linearGradient>
			<path fill="url(#SVGID_28_)" d="M-483.323,226.28c-0.26,0.307-15.241,0.477-15.525,0.048c-2.454-3.709-1.771-8.996,1.841-12.479
				c4.028-3.889,10.169-4.055,13.719-0.372C-480.001,216.883-480.092,222.397-483.323,226.28z"/>
			
				<linearGradient id="SVGID_29_" gradientUnits="userSpaceOnUse" x1="-736.7202" y1="-684.1921" x2="-719.0134" y2="-692.0757" gradientTransform="matrix(1 0 0 -1 235.4102 -476.0981)">
				<stop  offset="0.2182" style="stop-color:#FFFFFF"/>
				<stop  offset="0.3919" style="stop-color:#FCFDFE"/>
				<stop  offset="0.5358" style="stop-color:#F1F7FC"/>
				<stop  offset="0.6691" style="stop-color:#E0EDF8"/>
				<stop  offset="0.7959" style="stop-color:#C8DFF2"/>
				<stop  offset="0.9172" style="stop-color:#A9CDEA"/>
				<stop  offset="1" style="stop-color:#8FBEE4"/>
			</linearGradient>
			<path fill="url(#SVGID_29_)" d="M-485.781,218.953c-4.028,3.886-10.28,3.938-13.969,0.116c-3.686-3.82-3.409-10.067,0.619-13.953
				c4.025-3.885,10.279-3.937,13.966-0.115C-481.477,208.823-481.754,215.069-485.781,218.953z"/>
			
				<linearGradient id="SVGID_30_" gradientUnits="userSpaceOnUse" x1="-741.5791" y1="-685.4495" x2="-727.5967" y2="-697.6043" gradientTransform="matrix(1 0 0 -1 235.4102 -476.0981)">
				<stop  offset="0.1576" style="stop-color:#FFFFFF"/>
				<stop  offset="0.336" style="stop-color:#FCFDFE"/>
				<stop  offset="0.4921" style="stop-color:#F1F7FC"/>
				<stop  offset="0.6399" style="stop-color:#DFECF7"/>
				<stop  offset="0.7825" style="stop-color:#C6DEF1"/>
				<stop  offset="0.9201" style="stop-color:#A5CBE9"/>
				<stop  offset="1" style="stop-color:#8FBEE4"/>
			</linearGradient>
			<path fill="url(#SVGID_30_)" d="M-492.751,222.09c-4.024,3.888-10.17,4.056-13.718,0.373c-3.549-3.68-3.162-9.812,0.865-13.694
				c4.025-3.887,10.171-4.054,13.72-0.371C-488.334,212.073-488.722,218.205-492.751,222.09z"/>
			
				<linearGradient id="SVGID_31_" gradientUnits="userSpaceOnUse" x1="-744.6055" y1="-687.6672" x2="-742.9707" y2="-703.2212" gradientTransform="matrix(1 0 0 -1 235.4102 -476.0981)">
				<stop  offset="0.2667" style="stop-color:#FFFFFF"/>
				<stop  offset="0.4137" style="stop-color:#FBFDFE"/>
				<stop  offset="0.5508" style="stop-color:#F0F6FB"/>
				<stop  offset="0.684" style="stop-color:#DDEBF7"/>
				<stop  offset="0.8147" style="stop-color:#C3DCF0"/>
				<stop  offset="0.9426" style="stop-color:#A1C8E8"/>
				<stop  offset="1" style="stop-color:#8FBEE4"/>
			</linearGradient>
			<path fill="url(#SVGID_31_)" d="M-499.352,226.206c-0.337,0.444-19.306,0.452-19.455,0.126c-0.298-0.65,1.939-2.309,2.337-2.905
				c4.166-6.295,5.762-12.828,11.963-12.179c1.844,0.195,3.544,1.142,4.889,2.531C-496.434,217.08-496.419,222.352-499.352,226.206z
				"/>
		</g>
		<path fill="#035E98" d="M-480.472,219.481c-0.173-2.171-1.003-4.111-2.253-5.611c0.009-0.021,0.015-0.052,0.02-0.09
			c1.002-7.004-2.218-10.815-7.166-12.083c-3.606-0.924-7.284,0.375-9.709,3.063c-3.689,0.262-7.049,2.729-8.508,6.42
			c-1.833,0.56-3.314,1.771-4.318,3.354c-0.003,0-0.399,0.717-0.66,1.243c-2.734,5.113-4.939,8.006-6.487,9.563
			c-0.361,0.364-1.958,1.732-1.958,1.732h38.273l0.2,0.003C-481.264,225.165-480.236,222.434-480.472,219.481z M-484.263,225.755
			h-33.161c3.563-4.354,5.5-8.839,5.993-9.706c0.708-1.175,1.588-2.161,2.762-2.845c0.829-0.5,1.483-0.723,2.176-0.845
			c1.407-0.313,2.833-0.206,4.164,0.246c0.771,0.295,1.028,0.379,1.784,0.852c0.565,0.354,1.101,0.771,1.589,1.244l0.054-0.104
			c-0.501-0.688-1.08-1.293-1.718-1.811c-0.757-0.646-1.041-0.806-1.721-1.104c-1.125-0.553-2.348-0.848-3.588-0.836
			c1.021-2.149,2.848-3.844,5.202-4.559c0.797-0.24,1.324-0.313,2.294-0.355c3.405-0.044,6.642,2.022,8.23,5.313l0.114-0.146
			c-1.057-2.934-3.413-5.271-6.553-6.074c-0.235-0.063-0.474-0.107-0.709-0.149c0.858-0.7,1.865-1.235,2.988-1.553
			c4.669-1.31,9.465,1.604,10.866,6.601c0.294,1.052,0.343,2.425,0.296,3.45l-0.199,1.065c0.837,1.322,1.417,2.206,1.552,3.914
			C-481.615,221.215-482.577,223.867-484.263,225.755z"/>
	</g>
</g>
<g id="Lumet" display="none">
	<g display="inline">
		
			<radialGradient id="SVGID_32_" cx="-729.7476" cy="-682.073" r="8.947" gradientTransform="matrix(1 0 0 -1 235.4102 -476.0981)" gradientUnits="userSpaceOnUse">
			<stop  offset="0.2545" style="stop-color:#FFFFFF"/>
			<stop  offset="0.4164" style="stop-color:#FBFBFD"/>
			<stop  offset="0.5797" style="stop-color:#EFF0F7"/>
			<stop  offset="0.7436" style="stop-color:#DBDEED"/>
			<stop  offset="0.9072" style="stop-color:#BFC4E0"/>
			<stop  offset="1" style="stop-color:#ABB2D6"/>
		</radialGradient>
		<circle fill="url(#SVGID_32_)" cx="-494.337" cy="205.975" r="8.947"/>
		<g>
			
				<radialGradient id="SVGID_33_" cx="-729.7471" cy="-681.7854" r="7.9468" gradientTransform="matrix(1 0 0 -1 235.4102 -476.0981)" gradientUnits="userSpaceOnUse">
				<stop  offset="0.1212" style="stop-color:#808BBE"/>
				<stop  offset="0.1783" style="stop-color:#747CB4"/>
				<stop  offset="0.2712" style="stop-color:#676BA8"/>
				<stop  offset="0.3869" style="stop-color:#5E60A0"/>
				<stop  offset="0.5493" style="stop-color:#58599B"/>
				<stop  offset="1" style="stop-color:#57579A"/>
			</radialGradient>
			<path fill="url(#SVGID_33_)" d="M-486.374,203.622c0,0-1.697,0.831-6.697,1.317c2.893-4.104,4.451-5.096,4.451-5.096
				l-3.521-2.087c0,0-0.135,1.894-2.211,6.463c-2.104-4.556-2.188-6.404-2.188-6.404l-3.564,2.009c0,0,1.568,1.057,4.492,5.146
				c-5-0.454-6.643-1.313-6.643-1.313l-0.045,4.094c0,0,1.701-0.832,6.701-1.314c-2.895,4.102-4.453,5.097-4.453,5.097l3.52,2.084
				c0,0,0.137-1.892,2.213-6.461c2.104,4.555,2.188,6.405,2.188,6.405l3.566-2.009c0,0-1.57-1.062-4.492-5.146
				c5.002,0.454,6.643,1.31,6.643,1.31L-486.374,203.622z"/>
			
				<radialGradient id="SVGID_34_" cx="-729.7495" cy="-681.7864" r="9.2534" gradientTransform="matrix(1 0 0 -1 235.4102 -476.0981)" gradientUnits="userSpaceOnUse">
				<stop  offset="0.1212" style="stop-color:#14152E"/>
				<stop  offset="0.3521" style="stop-color:#424562"/>
				<stop  offset="0.6585" style="stop-color:#7B80A0"/>
				<stop  offset="0.8831" style="stop-color:#9EA4C7"/>
				<stop  offset="1" style="stop-color:#ABB2D6"/>
			</radialGradient>
			<path fill="url(#SVGID_34_)" d="M-496.544,214.922c-0.225,0-0.451-0.059-0.652-0.179l-3.521-2.085
				c-0.395-0.229-0.639-0.65-0.645-1.104c-0.01-0.455,0.223-0.884,0.605-1.129l0,0c-0.002,0,0.773-0.535,2.221-2.284
				c-2.295,0.389-3.191,0.793-3.204,0.797c-0.407,0.188-0.892,0.153-1.269-0.088c-0.375-0.243-0.606-0.661-0.604-1.109l0.045-4.094
				c0.006-0.455,0.248-0.875,0.639-1.11c0.389-0.232,0.871-0.247,1.277-0.037l0,0c0,0,0.854,0.402,3.092,0.781
				c-1.484-1.793-2.281-2.37-2.293-2.377c-0.367-0.259-0.58-0.692-0.558-1.141c0.022-0.449,0.269-0.858,0.657-1.078l3.566-2.008
				c0.396-0.225,0.881-0.227,1.278-0.005c0.397,0.223,0.651,0.635,0.673,1.086l0,0c0.002,0,0.08,0.942,0.871,3.068
				c0.811-2.182,0.908-3.162,0.91-3.174c0.041-0.446,0.313-0.848,0.712-1.052c0.399-0.204,0.875-0.196,1.263,0.03l3.521,2.084
				c0.395,0.232,0.639,0.651,0.645,1.106c0.008,0.455-0.225,0.881-0.607,1.126l0,0c0.002,0-0.771,0.539-2.221,2.289
				c2.295-0.391,3.192-0.793,3.205-0.798c0.408-0.188,0.891-0.156,1.268,0.089c0.377,0.244,0.609,0.661,0.604,1.109l-0.043,4.093
				c-0.006,0.456-0.246,0.876-0.641,1.107c-0.391,0.233-0.875,0.246-1.277,0.036l0,0c0,0-0.854-0.399-3.091-0.776
				c1.483,1.792,2.278,2.366,2.29,2.377c0.367,0.259,0.582,0.689,0.561,1.141c-0.023,0.449-0.271,0.857-0.66,1.077l-3.566,2.009
				c-0.396,0.224-0.881,0.228-1.277,0.004c-0.396-0.223-0.652-0.633-0.672-1.089l0,0c-0.002,0.002-0.08-0.941-0.871-3.063
				c-0.811,2.181-0.91,3.156-0.912,3.174c-0.041,0.443-0.311,0.848-0.711,1.051C-496.126,214.872-496.333,214.922-496.544,214.922
				L-496.544,214.922z"/>
		</g>
		<path fill="#FFFFFF" stroke="#FFFFFF" stroke-width="0.5613" stroke-miterlimit="10" d="M-486.374,203.954
			c0,0-1.697,0.831-6.697,1.317c2.893-4.104,4.451-5.099,4.451-5.099l-3.521-2.085c0,0-0.135,1.894-2.211,6.465
			c-2.104-4.557-2.188-6.404-2.188-6.404l-3.564,2.008c0,0,1.568,1.058,4.492,5.146c-5-0.453-6.643-1.312-6.643-1.312l-0.045,4.093
			c0,0,1.701-0.831,6.701-1.313c-2.895,4.103-4.453,5.096-4.453,5.096l3.52,2.085c0,0,0.137-1.891,2.213-6.46
			c2.104,4.553,2.188,6.403,2.188,6.403l3.566-2.012c0,0-1.57-1.057-4.492-5.145c5.002,0.453,6.643,1.31,6.643,1.31
			L-486.374,203.954z"/>
		<g>
			<polygon fill="#426BAC" points="-492.571,198.339 -492.432,197.506 -488.032,200.117 -488.669,200.656 			"/>
		</g>
		<g>
			<polygon fill="#426BAC" points="-500.063,200.601 -500.716,200.066 -496.253,197.559 -496.104,198.381 			"/>
		</g>
		<g>
			<polygon fill="#426BAC" points="-501.932,208.236 -502.723,208.533 -502.661,203.417 -501.876,203.698 			"/>
		</g>
		<g>
			<polygon fill="#426BAC" points="-496.141,213.723 -496.276,214.557 -500.68,211.946 -500.042,211.406 			"/>
		</g>
		<g>
			<polygon fill="#426BAC" points="-488.614,211.46 -487.96,211.997 -492.423,214.502 -492.571,213.682 			"/>
		</g>
		<g>
			<polygon fill="#426BAC" points="-486.741,203.76 -485.95,203.46 -486.01,208.577 -486.798,208.294 			"/>
		</g>
	</g>
	<g display="inline">
		
			<radialGradient id="SVGID_35_" cx="-747.2104" cy="-682.073" r="8.948" gradientTransform="matrix(1 0 0 -1 235.4102 -476.0981)" gradientUnits="userSpaceOnUse">
			<stop  offset="0.2545" style="stop-color:#FFFFFF"/>
			<stop  offset="0.4164" style="stop-color:#FBFBFD"/>
			<stop  offset="0.5797" style="stop-color:#EFF0F7"/>
			<stop  offset="0.7436" style="stop-color:#DBDEED"/>
			<stop  offset="0.9072" style="stop-color:#BFC4E0"/>
			<stop  offset="1" style="stop-color:#ABB2D6"/>
		</radialGradient>
		<circle fill="url(#SVGID_35_)" cx="-511.8" cy="205.975" r="8.948"/>
		<g>
			
				<radialGradient id="SVGID_36_" cx="-747.2114" cy="-681.7854" r="7.9475" gradientTransform="matrix(1 0 0 -1 235.4102 -476.0981)" gradientUnits="userSpaceOnUse">
				<stop  offset="0.1212" style="stop-color:#808BBE"/>
				<stop  offset="0.1783" style="stop-color:#747CB4"/>
				<stop  offset="0.2712" style="stop-color:#676BA8"/>
				<stop  offset="0.3869" style="stop-color:#5E60A0"/>
				<stop  offset="0.5493" style="stop-color:#58599B"/>
				<stop  offset="1" style="stop-color:#57579A"/>
			</radialGradient>
			<path fill="url(#SVGID_36_)" d="M-503.837,203.622c0,0-1.701,0.831-6.702,1.317c2.896-4.104,4.454-5.096,4.454-5.096
				l-3.521-2.087c0,0-0.136,1.894-2.211,6.463c-2.104-4.556-2.188-6.404-2.188-6.404l-3.564,2.009c0,0,1.567,1.057,4.488,5.146
				c-5-0.454-6.64-1.313-6.64-1.313l-0.045,4.094c0,0,1.702-0.832,6.703-1.314c-2.895,4.102-4.455,5.097-4.455,5.097l3.521,2.084
				c0,0,0.134-1.892,2.209-6.461c2.104,4.555,2.188,6.405,2.188,6.405l3.567-2.009c0,0-1.569-1.062-4.492-5.146
				c5,0.454,6.641,1.31,6.641,1.31L-503.837,203.622z"/>
			
				<radialGradient id="SVGID_37_" cx="-747.2104" cy="-681.7864" r="9.2544" gradientTransform="matrix(1 0 0 -1 235.4102 -476.0981)" gradientUnits="userSpaceOnUse">
				<stop  offset="0.1212" style="stop-color:#14152E"/>
				<stop  offset="0.3521" style="stop-color:#424562"/>
				<stop  offset="0.6585" style="stop-color:#7B80A0"/>
				<stop  offset="0.8831" style="stop-color:#9EA4C7"/>
				<stop  offset="1" style="stop-color:#ABB2D6"/>
			</radialGradient>
			<path fill="url(#SVGID_37_)" d="M-514.006,214.922c-0.228,0-0.454-0.059-0.656-0.179l-3.521-2.085
				c-0.394-0.229-0.634-0.65-0.644-1.104c-0.007-0.455,0.224-0.884,0.606-1.129l0,0c-0.001,0,0.775-0.535,2.222-2.284
				c-2.295,0.389-3.191,0.793-3.205,0.797c-0.407,0.188-0.891,0.153-1.267-0.088c-0.376-0.243-0.608-0.661-0.604-1.109l0.047-4.094
				c0.004-0.455,0.244-0.875,0.637-1.11c0.39-0.232,0.875-0.247,1.278-0.037l0,0c0.001,0,0.854,0.402,3.093,0.781
				c-1.485-1.793-2.283-2.37-2.294-2.377c-0.366-0.259-0.581-0.692-0.559-1.141c0.023-0.449,0.27-0.858,0.659-1.078l3.567-2.008
				c0.396-0.225,0.88-0.227,1.275-0.005c0.399,0.223,0.654,0.635,0.675,1.086l0,0c0.001,0,0.08,0.942,0.872,3.068
				c0.809-2.182,0.908-3.162,0.91-3.174c0.043-0.446,0.313-0.848,0.71-1.052c0.399-0.204,0.877-0.196,1.264,0.03l3.521,2.084
				c0.396,0.232,0.638,0.651,0.646,1.106c0.006,0.455-0.225,0.881-0.607,1.126l0,0c0.002,0-0.774,0.539-2.221,2.289
				c2.295-0.391,3.192-0.793,3.205-0.798c0.407-0.188,0.891-0.156,1.268,0.089c0.375,0.244,0.607,0.661,0.604,1.109l-0.046,4.093
				c-0.004,0.456-0.245,0.876-0.638,1.107c-0.391,0.233-0.875,0.246-1.276,0.036l0,0c0,0-0.854-0.399-3.093-0.776
				c1.484,1.792,2.281,2.366,2.294,2.377c0.366,0.259,0.579,0.689,0.558,1.141c-0.023,0.449-0.27,0.857-0.658,1.077l-3.566,2.009
				c-0.397,0.224-0.883,0.228-1.279,0.004c-0.397-0.223-0.653-0.633-0.673-1.089l0,0c0,0.002-0.08-0.941-0.87-3.063
				c-0.811,2.181-0.911,3.156-0.913,3.174c-0.041,0.443-0.313,0.848-0.709,1.051C-513.59,214.872-513.799,214.922-514.006,214.922
				L-514.006,214.922z"/>
		</g>
		<path fill="#FFFFFF" stroke="#FFFFFF" stroke-width="0.5613" stroke-miterlimit="10" d="M-503.837,203.954
			c0,0-1.701,0.831-6.702,1.317c2.896-4.104,4.454-5.099,4.454-5.099l-3.521-2.085c0,0-0.136,1.894-2.211,6.465
			c-2.104-4.557-2.188-6.404-2.188-6.404l-3.564,2.008c0,0,1.567,1.058,4.488,5.146c-5-0.453-6.64-1.312-6.64-1.312l-0.045,4.093
			c0,0,1.702-0.831,6.703-1.313c-2.895,4.103-4.455,5.096-4.455,5.096l3.521,2.085c0,0,0.134-1.891,2.209-6.46
			c2.104,4.553,2.188,6.403,2.188,6.403l3.567-2.012c0,0-1.569-1.057-4.492-5.145c5,0.453,6.641,1.31,6.641,1.31L-503.837,203.954z"
			/>
		<g>
			<polygon fill="#426BAC" points="-510.035,198.339 -509.898,197.506 -505.497,200.117 -506.132,200.656 			"/>
		</g>
		<g>
			<polygon fill="#426BAC" points="-517.527,200.601 -518.18,200.066 -513.718,197.559 -513.57,198.381 			"/>
		</g>
		<g>
			<polygon fill="#426BAC" points="-519.396,208.236 -520.188,208.533 -520.127,203.417 -519.341,203.698 			"/>
		</g>
		<g>
			<polygon fill="#426BAC" points="-513.606,213.723 -513.742,214.557 -518.144,211.946 -517.507,211.406 			"/>
		</g>
		<g>
			<polygon fill="#426BAC" points="-506.077,211.46 -505.425,211.997 -509.887,214.502 -510.035,213.682 			"/>
		</g>
		<g>
			<polygon fill="#426BAC" points="-504.206,203.76 -503.415,203.46 -503.475,208.577 -504.26,208.294 			"/>
		</g>
	</g>
	<g display="inline">
		
			<radialGradient id="SVGID_38_" cx="-738.9067" cy="-694.5339" r="8.9468" gradientTransform="matrix(1 0 0 -1 235.4102 -476.0981)" gradientUnits="userSpaceOnUse">
			<stop  offset="0.2545" style="stop-color:#FFFFFF"/>
			<stop  offset="0.4164" style="stop-color:#FBFBFD"/>
			<stop  offset="0.5797" style="stop-color:#EFF0F7"/>
			<stop  offset="0.7436" style="stop-color:#DBDEED"/>
			<stop  offset="0.9072" style="stop-color:#BFC4E0"/>
			<stop  offset="1" style="stop-color:#ABB2D6"/>
		</radialGradient>
		<circle fill="url(#SVGID_38_)" cx="-503.497" cy="218.436" r="8.947"/>
		<g>
			
				<radialGradient id="SVGID_39_" cx="-738.9063" cy="-694.2449" r="7.9465" gradientTransform="matrix(1 0 0 -1 235.4102 -476.0981)" gradientUnits="userSpaceOnUse">
				<stop  offset="0.1212" style="stop-color:#808BBE"/>
				<stop  offset="0.1783" style="stop-color:#747CB4"/>
				<stop  offset="0.2712" style="stop-color:#676BA8"/>
				<stop  offset="0.3869" style="stop-color:#5E60A0"/>
				<stop  offset="0.5493" style="stop-color:#58599B"/>
				<stop  offset="1" style="stop-color:#57579A"/>
			</radialGradient>
			<path fill="url(#SVGID_39_)" d="M-495.534,216.084c0,0-1.697,0.83-6.699,1.316c2.895-4.104,4.453-5.095,4.453-5.095l-3.521-2.09
				c0,0-0.133,1.895-2.209,6.464c-2.105-4.556-2.188-6.402-2.188-6.402l-3.565,2.007c0,0,1.571,1.058,4.493,5.146
				c-5.001-0.455-6.643-1.313-6.643-1.313l-0.045,4.093c0,0,1.702-0.831,6.702-1.313c-2.895,4.102-4.455,5.094-4.455,5.094
				l3.523,2.086c0,0,0.133-1.891,2.209-6.461c2.104,4.554,2.188,6.403,2.188,6.403l3.566-2.006c0,0-1.57-1.062-4.492-5.146
				c5,0.454,6.645,1.313,6.645,1.313L-495.534,216.084z"/>
			
				<radialGradient id="SVGID_40_" cx="-738.9053" cy="-694.2463" r="9.2551" gradientTransform="matrix(1 0 0 -1 235.4102 -476.0981)" gradientUnits="userSpaceOnUse">
				<stop  offset="0.1212" style="stop-color:#14152E"/>
				<stop  offset="0.3521" style="stop-color:#424562"/>
				<stop  offset="0.6585" style="stop-color:#7B80A0"/>
				<stop  offset="0.8831" style="stop-color:#9EA4C7"/>
				<stop  offset="1" style="stop-color:#ABB2D6"/>
			</radialGradient>
			<path fill="url(#SVGID_40_)" d="M-505.702,227.385c-0.227,0-0.451-0.062-0.654-0.18l-3.522-2.085
				c-0.391-0.229-0.635-0.647-0.642-1.104c-0.008-0.457,0.222-0.886,0.605-1.127l0,0c-0.001,0,0.776-0.541,2.224-2.289
				c-2.295,0.391-3.193,0.792-3.205,0.799c-0.408,0.188-0.893,0.155-1.269-0.088c-0.376-0.245-0.607-0.662-0.604-1.11l0.044-4.094
				c0.006-0.455,0.247-0.876,0.637-1.11c0.393-0.23,0.875-0.247,1.279-0.037l0,0c0.002,0,0.855,0.402,3.093,0.78
				c-1.485-1.792-2.283-2.369-2.293-2.376c-0.367-0.26-0.58-0.693-0.557-1.141c0.021-0.449,0.268-0.859,0.657-1.078l3.567-2.012
				c0.398-0.222,0.881-0.224,1.279-0.002c0.396,0.222,0.65,0.634,0.672,1.085l0,0c0,0,0.08,0.944,0.873,3.068
				c0.809-2.181,0.908-3.16,0.91-3.174c0.043-0.447,0.311-0.849,0.711-1.053c0.396-0.204,0.875-0.195,1.262,0.03l3.521,2.088
				c0.394,0.229,0.638,0.647,0.644,1.104c0.008,0.455-0.221,0.882-0.605,1.126l0,0c0,0-0.773,0.541-2.221,2.289
				c2.295-0.39,3.191-0.792,3.205-0.798c0.406-0.188,0.889-0.157,1.266,0.088c0.375,0.243,0.607,0.661,0.604,1.109l-0.045,4.093
				c-0.004,0.456-0.246,0.876-0.638,1.108c-0.392,0.232-0.872,0.246-1.278,0.037l0,0c0,0-0.855-0.399-3.092-0.778
				c1.482,1.794,2.281,2.367,2.295,2.378c0.363,0.26,0.578,0.69,0.557,1.141c-0.022,0.448-0.268,0.857-0.66,1.078l-3.564,2.008
				c-0.396,0.223-0.882,0.229-1.279,0.003c-0.396-0.221-0.652-0.631-0.672-1.087l0,0c0,0-0.08-0.938-0.871-3.067
				c-0.81,2.184-0.91,3.161-0.912,3.176c-0.041,0.445-0.311,0.849-0.709,1.053C-505.286,227.334-505.493,227.385-505.702,227.385
				L-505.702,227.385z"/>
		</g>
		<path fill="#FFFFFF" stroke="#FFFFFF" stroke-width="0.5613" stroke-miterlimit="10" d="M-495.534,216.414
			c0,0-1.697,0.832-6.699,1.318c2.895-4.104,4.453-5.097,4.453-5.097l-3.521-2.088c0,0-0.133,1.894-2.209,6.464
			c-2.105-4.557-2.188-6.404-2.188-6.404l-3.565,2.008c0,0,1.571,1.058,4.493,5.146c-5.001-0.454-6.643-1.313-6.643-1.313
			l-0.045,4.093c0,0,1.702-0.831,6.702-1.313c-2.895,4.104-4.455,5.096-4.455,5.096l3.523,2.086c0,0,0.133-1.892,2.209-6.462
			c2.104,4.555,2.188,6.404,2.188,6.404l3.566-2.011c0,0-1.57-1.057-4.492-5.146c5,0.456,6.645,1.311,6.645,1.311L-495.534,216.414z
			"/>
		<g>
			<polygon fill="#426BAC" points="-501.731,210.802 -501.593,209.967 -497.192,212.577 -497.829,213.116 			"/>
		</g>
		<g>
			<polygon fill="#426BAC" points="-509.223,213.063 -509.876,212.527 -505.413,210.021 -505.264,210.842 			"/>
		</g>
		<g>
			<polygon fill="#426BAC" points="-511.093,220.697 -511.884,220.995 -511.823,215.878 -511.037,216.161 			"/>
		</g>
		<g>
			<polygon fill="#426BAC" points="-505.302,226.184 -505.438,227.019 -509.841,224.406 -509.202,223.867 			"/>
		</g>
		<g>
			<polygon fill="#426BAC" points="-497.774,223.922 -497.122,224.457 -501.583,226.964 -501.731,226.142 			"/>
		</g>
		<g>
			<polygon fill="#426BAC" points="-495.903,216.219 -495.11,215.92 -495.173,221.039 -495.958,220.756 			"/>
		</g>
	</g>
</g>
<g id="Vedet">
	<g>
		<path d="M25.048,36.575c0,0,0.063-0.164-0.068-0.229c-0.146-0.07-0.283,0.109-0.283,0.109s-3.12,5.602-8.893,9.699
			c-5.427,3.854-4.343,8.805-3.194,10.053c1.148,1.252,3.545,2.83,6.855,1.016c3.524-1.938,3.584-6.936,3.584-8.57
			S22.893,42.02,25.048,36.575z"/>
		
			<radialGradient id="SVGID_41_" cx="-218.7134" cy="-528.3201" r="6.9782" gradientTransform="matrix(1 0 0 -1 235.4102 -476.0981)" gradientUnits="userSpaceOnUse">
			<stop  offset="0.2045" style="stop-color:#FFFFFF"/>
			<stop  offset="0.5412" style="stop-color:#7C98C9"/>
			<stop  offset="0.6468" style="stop-color:#809CCB"/>
			<stop  offset="0.7581" style="stop-color:#8DA9D1"/>
			<stop  offset="0.8721" style="stop-color:#A2BEDA"/>
			<stop  offset="0.9872" style="stop-color:#BFDBE7"/>
			<stop  offset="1" style="stop-color:#C3DFE9"/>
		</radialGradient>
		<path fill="url(#SVGID_41_)" d="M21.877,42.817c0.15-0.396-0.181-0.398-0.308-0.111c-0.056,0.125-1.069,2.406-5.425,5.223
			c-3.8,2.453-2.952,5.984-2.172,6.836c0.781,0.85,2.41,1.924,4.663,0.688c2.396-1.313,2.329-4.721,2.437-5.828
			C21.268,47.602,21.343,44.212,21.877,42.817z"/>
	</g>
	<g>
		<path d="M39.518,36.575c0,0,0.063-0.164-0.07-0.229c-0.146-0.07-0.281,0.109-0.281,0.109s-3.119,5.602-8.895,9.699
			c-5.428,3.854-4.343,8.805-3.196,10.053c1.15,1.252,3.547,2.83,6.858,1.016c3.521-1.938,3.584-6.936,3.584-8.57
			S37.364,42.02,39.518,36.575z"/>
		
			<radialGradient id="SVGID_42_" cx="-204.2417" cy="-528.3201" r="6.9787" gradientTransform="matrix(1 0 0 -1 235.4102 -476.0981)" gradientUnits="userSpaceOnUse">
			<stop  offset="0.2045" style="stop-color:#FFFFFF"/>
			<stop  offset="0.5412" style="stop-color:#7C98C9"/>
			<stop  offset="0.6468" style="stop-color:#809CCB"/>
			<stop  offset="0.7581" style="stop-color:#8DA9D1"/>
			<stop  offset="0.8721" style="stop-color:#A2BEDA"/>
			<stop  offset="0.9872" style="stop-color:#BFDBE7"/>
			<stop  offset="1" style="stop-color:#C3DFE9"/>
		</radialGradient>
		<path fill="url(#SVGID_42_)" d="M36.349,42.817c0.147-0.396-0.183-0.398-0.312-0.111c-0.055,0.125-1.067,2.406-5.424,5.223
			c-3.801,2.453-2.953,5.984-2.174,6.836c0.783,0.85,2.413,1.924,4.663,0.688c2.397-1.313,2.332-4.721,2.438-5.828
			C35.739,47.602,35.811,44.212,36.349,42.817z"/>
	</g>
</g>
<g id="Salama" display="none">
	<g display="inline">
		<polygon fill="#D4831D" points="-508.761,208.458 -516.422,225.396 -511.714,224.288 -517.068,236.286 -512.914,233.748 
			-500.686,217.919 -505.344,218.89 -496.393,205.967 		"/>
		<polygon fill="#EEE300" points="-506.862,209.629 -514.761,223.982 -508.715,222.688 -513.791,233.026 -503.987,219.889 
			-508.761,221.126 -500.454,208.242 		"/>
	</g>
	<g display="inline">
		<polygon fill="#D4831D" points="-494.602,208.458 -502.26,225.396 -497.553,224.288 -502.909,236.286 -498.755,233.748 
			-486.524,217.919 -491.186,218.89 -482.233,205.967 		"/>
		<polygon fill="#EEE300" points="-492.7,209.629 -500.6,223.982 -494.553,222.688 -499.632,233.026 -489.825,219.889 
			-494.602,221.126 -486.296,208.242 		"/>
	</g>
</g>
</svg>
